# Blender v3.6.10 OBJ File: 'TownOne.blend'
# www.blender.org
mtllib Lever.mtl
o Cube.010_Cube.011
v -0.154252 5.163369 2.319574
v -0.154252 7.526352 2.319574
v -0.154252 5.163369 0.917243
v -0.154252 7.526352 0.917243
v 0.349555 5.163369 2.319574
v 0.349555 7.526352 2.319574
v 0.349555 5.163369 0.917243
v 0.349555 7.526352 0.917243
v -0.140701 7.139228 1.867990
v -0.140701 7.139228 2.037335
v 0.015725 7.123822 1.867990
v 0.015725 7.123822 2.037335
v 0.166139 7.078194 1.867990
v 0.166139 7.078194 2.037335
v 0.304762 7.004098 1.867990
v 0.304762 7.004098 2.037335
v 0.426267 6.904382 1.867990
v 0.426267 6.904382 2.037335
v 0.525982 6.782878 1.867990
v 0.525982 6.782878 2.037335
v 0.600078 6.644255 1.867990
v 0.600078 6.644255 2.037335
v 0.645706 6.493841 1.867990
v 0.645706 6.493841 2.037335
v 0.661113 6.337414 1.867990
v 0.661113 6.337414 2.037335
v 0.645706 6.180988 1.867990
v 0.645706 6.180988 2.037335
v 0.600078 6.030573 1.867990
v 0.600078 6.030573 2.037335
v 0.525982 5.891951 1.867990
v 0.525982 5.891951 2.037335
v 0.426267 5.770446 1.867990
v 0.426267 5.770446 2.037335
v 0.304762 5.670731 1.867990
v 0.304762 5.670731 2.037335
v 0.166139 5.596635 1.867990
v 0.166139 5.596635 2.037335
v 0.015725 5.551007 1.867990
v 0.015725 5.551007 2.037335
v -0.140701 5.535601 1.867990
v -0.140701 5.535601 2.037335
v -0.297127 5.551007 1.867990
v -0.297127 5.551007 2.037335
v -0.447542 5.596635 1.867990
v -0.447542 5.596635 2.037335
v -0.586165 5.670731 1.867990
v -0.586165 5.670731 2.037335
v -0.707669 5.770446 1.867990
v -0.707669 5.770446 2.037335
v -0.807385 5.891951 1.867990
v -0.807385 5.891951 2.037335
v -0.881481 6.030573 1.867990
v -0.881481 6.030573 2.037335
v -0.927109 6.180988 1.867990
v -0.927109 6.180988 2.037335
v -0.942515 6.337414 1.867990
v -0.942515 6.337414 2.037335
v -0.927109 6.493841 1.867990
v -0.927109 6.493841 2.037335
v -0.881481 6.644255 1.867990
v -0.881481 6.644255 2.037335
v -0.807385 6.782878 1.867990
v -0.807385 6.782878 2.037335
v -0.707669 6.904382 1.867990
v -0.707669 6.904382 2.037335
v -0.586165 7.004098 1.867990
v -0.586165 7.004098 2.037335
v -0.447542 7.078194 1.867990
v -0.447542 7.078194 2.037335
v -0.297127 7.123822 1.867990
v -0.297127 7.123822 2.037335
v -0.140701 7.139228 1.191332
v -0.140701 7.139228 1.360677
v 0.015725 7.123822 1.191332
v 0.015725 7.123822 1.360677
v 0.166139 7.078194 1.191332
v 0.166139 7.078194 1.360677
v 0.304762 7.004098 1.191332
v 0.304762 7.004098 1.360677
v 0.426267 6.904382 1.191332
v 0.426267 6.904382 1.360677
v 0.525982 6.782878 1.191332
v 0.525982 6.782878 1.360677
v 0.600078 6.644255 1.191332
v 0.600078 6.644255 1.360677
v 0.645706 6.493841 1.191332
v 0.645706 6.493841 1.360677
v 0.661113 6.337414 1.191332
v 0.661113 6.337414 1.360676
v 0.645706 6.180988 1.191332
v 0.645706 6.180988 1.360676
v 0.600078 6.030573 1.191332
v 0.600078 6.030573 1.360676
v 0.525982 5.891951 1.191332
v 0.525982 5.891951 1.360676
v 0.426267 5.770446 1.191332
v 0.426267 5.770446 1.360676
v 0.304762 5.670731 1.191332
v 0.304762 5.670731 1.360676
v 0.166139 5.596635 1.191332
v 0.166139 5.596635 1.360676
v 0.015725 5.551007 1.191332
v 0.015725 5.551007 1.360676
v -0.140701 5.535601 1.191332
v -0.140701 5.535601 1.360676
v -0.297127 5.551007 1.191332
v -0.297127 5.551007 1.360676
v -0.447542 5.596635 1.191332
v -0.447542 5.596635 1.360676
v -0.586165 5.670731 1.191332
v -0.586165 5.670731 1.360676
v -0.707669 5.770446 1.191332
v -0.707669 5.770446 1.360676
v -0.807385 5.891951 1.191332
v -0.807385 5.891951 1.360676
v -0.881481 6.030573 1.191332
v -0.881481 6.030573 1.360676
v -0.927109 6.180988 1.191332
v -0.927109 6.180988 1.360676
v -0.942515 6.337414 1.191332
v -0.942515 6.337414 1.360676
v -0.927109 6.493841 1.191332
v -0.927109 6.493841 1.360677
v -0.881481 6.644255 1.191332
v -0.881481 6.644255 1.360677
v -0.807385 6.782878 1.191332
v -0.807385 6.782878 1.360677
v -0.707669 6.904382 1.191332
v -0.707669 6.904382 1.360677
v -0.586165 7.004098 1.191332
v -0.586165 7.004098 1.360677
v -0.447542 7.078194 1.191332
v -0.447542 7.078194 1.360677
v -0.297127 7.123822 1.191332
v -0.297127 7.123822 1.360677
vt 0.375000 0.000000
vt 0.625000 0.000000
vt 0.625000 0.250000
vt 0.375000 0.250000
vt 0.625000 0.500000
vt 0.375000 0.500000
vt 0.625000 0.750000
vt 0.375000 0.750000
vt 0.625000 1.000000
vt 0.375000 1.000000
vt 0.125000 0.500000
vt 0.125000 0.750000
vt 0.875000 0.500000
vt 0.875000 0.750000
vt 1.000000 0.500000
vt 1.000000 1.000000
vt 0.968750 1.000000
vt 0.968750 0.500000
vt 0.937500 1.000000
vt 0.937500 0.500000
vt 0.906250 1.000000
vt 0.906250 0.500000
vt 0.875000 1.000000
vt 0.875000 0.500000
vt 0.843750 1.000000
vt 0.843750 0.500000
vt 0.812500 1.000000
vt 0.812500 0.500000
vt 0.781250 1.000000
vt 0.781250 0.500000
vt 0.750000 1.000000
vt 0.750000 0.500000
vt 0.718750 1.000000
vt 0.718750 0.500000
vt 0.687500 1.000000
vt 0.687500 0.500000
vt 0.656250 1.000000
vt 0.656250 0.500000
vt 0.625000 1.000000
vt 0.625000 0.500000
vt 0.593750 1.000000
vt 0.593750 0.500000
vt 0.562500 1.000000
vt 0.562500 0.500000
vt 0.531250 1.000000
vt 0.531250 0.500000
vt 0.500000 1.000000
vt 0.500000 0.500000
vt 0.468750 1.000000
vt 0.468750 0.500000
vt 0.437500 1.000000
vt 0.437500 0.500000
vt 0.406250 1.000000
vt 0.406250 0.500000
vt 0.375000 1.000000
vt 0.375000 0.500000
vt 0.343750 1.000000
vt 0.343750 0.500000
vt 0.312500 1.000000
vt 0.312500 0.500000
vt 0.281250 1.000000
vt 0.281250 0.500000
vt 0.250000 1.000000
vt 0.250000 0.500000
vt 0.218750 1.000000
vt 0.218750 0.500000
vt 0.187500 1.000000
vt 0.187500 0.500000
vt 0.156250 1.000000
vt 0.156250 0.500000
vt 0.125000 1.000000
vt 0.125000 0.500000
vt 0.093750 1.000000
vt 0.093750 0.500000
vt 0.062500 1.000000
vt 0.062500 0.500000
vt 0.296822 0.485388
vt 0.250000 0.490000
vt 0.203178 0.485388
vt 0.158156 0.471731
vt 0.116663 0.449553
vt 0.080294 0.419706
vt 0.050447 0.383337
vt 0.028269 0.341844
vt 0.014612 0.296822
vt 0.010000 0.250000
vt 0.014612 0.203178
vt 0.028269 0.158156
vt 0.050447 0.116663
vt 0.080294 0.080294
vt 0.116663 0.050447
vt 0.158156 0.028269
vt 0.203178 0.014612
vt 0.250000 0.010000
vt 0.296822 0.014612
vt 0.341844 0.028269
vt 0.383337 0.050447
vt 0.419706 0.080294
vt 0.449553 0.116663
vt 0.471731 0.158156
vt 0.485388 0.203178
vt 0.490000 0.250000
vt 0.485388 0.296822
vt 0.471731 0.341844
vt 0.449553 0.383337
vt 0.419706 0.419706
vt 0.383337 0.449553
vt 0.341844 0.471731
vt 0.031250 1.000000
vt 0.031250 0.500000
vt 0.000000 1.000000
vt 0.000000 0.500000
vt 0.750000 0.490000
vt 0.796822 0.485388
vt 0.841844 0.471731
vt 0.883337 0.449553
vt 0.919706 0.419706
vt 0.949553 0.383337
vt 0.971731 0.341844
vt 0.985388 0.296822
vt 0.990000 0.250000
vt 0.985388 0.203178
vt 0.971731 0.158156
vt 0.949553 0.116663
vt 0.919706 0.080294
vt 0.883337 0.050447
vt 0.841844 0.028269
vt 0.796822 0.014612
vt 0.750000 0.010000
vt 0.703178 0.014612
vt 0.658156 0.028269
vt 0.616663 0.050447
vt 0.580294 0.080294
vt 0.550447 0.116663
vt 0.528269 0.158156
vt 0.514612 0.203178
vt 0.510000 0.250000
vt 0.514612 0.296822
vt 0.528269 0.341844
vt 0.550447 0.383337
vt 0.580294 0.419706
vt 0.616663 0.449553
vt 0.658156 0.471731
vt 0.703178 0.485388
vt 1.000000 0.500000
vt 1.000000 1.000000
vt 0.968750 1.000000
vt 0.968750 0.500000
vt 0.937500 1.000000
vt 0.937500 0.500000
vt 0.906250 1.000000
vt 0.906250 0.500000
vt 0.875000 1.000000
vt 0.875000 0.500000
vt 0.843750 1.000000
vt 0.843750 0.500000
vt 0.812500 1.000000
vt 0.812500 0.500000
vt 0.781250 1.000000
vt 0.781250 0.500000
vt 0.750000 1.000000
vt 0.750000 0.500000
vt 0.718750 1.000000
vt 0.718750 0.500000
vt 0.687500 1.000000
vt 0.687500 0.500000
vt 0.656250 1.000000
vt 0.656250 0.500000
vt 0.625000 1.000000
vt 0.625000 0.500000
vt 0.593750 1.000000
vt 0.593750 0.500000
vt 0.562500 1.000000
vt 0.562500 0.500000
vt 0.531250 1.000000
vt 0.531250 0.500000
vt 0.500000 1.000000
vt 0.500000 0.500000
vt 0.468750 1.000000
vt 0.468750 0.500000
vt 0.437500 1.000000
vt 0.437500 0.500000
vt 0.406250 1.000000
vt 0.406250 0.500000
vt 0.375000 1.000000
vt 0.375000 0.500000
vt 0.343750 1.000000
vt 0.343750 0.500000
vt 0.312500 1.000000
vt 0.312500 0.500000
vt 0.281250 1.000000
vt 0.281250 0.500000
vt 0.250000 1.000000
vt 0.250000 0.500000
vt 0.218750 1.000000
vt 0.218750 0.500000
vt 0.187500 1.000000
vt 0.187500 0.500000
vt 0.156250 1.000000
vt 0.156250 0.500000
vt 0.125000 1.000000
vt 0.125000 0.500000
vt 0.093750 1.000000
vt 0.093750 0.500000
vt 0.062500 1.000000
vt 0.062500 0.500000
vt 0.296822 0.485388
vt 0.250000 0.490000
vt 0.203178 0.485388
vt 0.158156 0.471731
vt 0.116663 0.449553
vt 0.080294 0.419706
vt 0.050447 0.383337
vt 0.028269 0.341844
vt 0.014612 0.296822
vt 0.010000 0.250000
vt 0.014612 0.203178
vt 0.028269 0.158156
vt 0.050447 0.116663
vt 0.080294 0.080294
vt 0.116663 0.050447
vt 0.158156 0.028269
vt 0.203178 0.014612
vt 0.250000 0.010000
vt 0.296822 0.014612
vt 0.341844 0.028269
vt 0.383337 0.050447
vt 0.419706 0.080294
vt 0.449553 0.116663
vt 0.471731 0.158156
vt 0.485388 0.203178
vt 0.490000 0.250000
vt 0.485388 0.296822
vt 0.471731 0.341844
vt 0.449553 0.383337
vt 0.419706 0.419706
vt 0.383337 0.449553
vt 0.341844 0.471731
vt 0.031250 1.000000
vt 0.031250 0.500000
vt 0.000000 1.000000
vt 0.000000 0.500000
vt 0.750000 0.490000
vt 0.796822 0.485388
vt 0.841844 0.471731
vt 0.883337 0.449553
vt 0.919706 0.419706
vt 0.949553 0.383337
vt 0.971731 0.341844
vt 0.985388 0.296822
vt 0.990000 0.250000
vt 0.985388 0.203178
vt 0.971731 0.158156
vt 0.949553 0.116663
vt 0.919706 0.080294
vt 0.883337 0.050447
vt 0.841844 0.028269
vt 0.796822 0.014612
vt 0.750000 0.010000
vt 0.703178 0.014612
vt 0.658156 0.028269
vt 0.616663 0.050447
vt 0.580294 0.080294
vt 0.550447 0.116663
vt 0.528269 0.158156
vt 0.514612 0.203178
vt 0.510000 0.250000
vt 0.514612 0.296822
vt 0.528269 0.341844
vt 0.550447 0.383337
vt 0.580294 0.419706
vt 0.616663 0.449553
vt 0.658156 0.471731
vt 0.703178 0.485388
vn -1.0000 0.0000 0.0000
vn 0.0000 0.0000 -1.0000
vn 1.0000 0.0000 0.0000
vn 0.0000 0.0000 1.0000
vn 0.0000 -1.0000 0.0000
vn 0.0000 1.0000 0.0000
vn 0.0980 0.9952 0.0000
vn 0.2903 0.9569 0.0000
vn 0.4714 0.8819 0.0000
vn 0.6344 0.7730 0.0000
vn 0.7730 0.6344 0.0000
vn 0.8819 0.4714 0.0000
vn 0.9569 0.2903 0.0000
vn 0.9952 0.0980 0.0000
vn 0.9952 -0.0980 0.0000
vn 0.9569 -0.2903 0.0000
vn 0.8819 -0.4714 0.0000
vn 0.7730 -0.6344 0.0000
vn 0.6344 -0.7730 0.0000
vn 0.4714 -0.8819 0.0000
vn 0.2903 -0.9569 0.0000
vn 0.0980 -0.9952 0.0000
vn -0.0980 -0.9952 0.0000
vn -0.2903 -0.9569 0.0000
vn -0.4714 -0.8819 0.0000
vn -0.6344 -0.7730 0.0000
vn -0.7730 -0.6344 0.0000
vn -0.8819 -0.4714 0.0000
vn -0.9569 -0.2903 0.0000
vn -0.9952 -0.0980 0.0000
vn -0.9952 0.0980 0.0000
vn -0.9569 0.2903 0.0000
vn -0.8819 0.4714 0.0000
vn -0.7730 0.6344 0.0000
vn -0.6344 0.7730 0.0000
vn -0.4714 0.8819 0.0000
vn -0.2903 0.9569 0.0000
vn -0.0980 0.9952 0.0000
usemtl None
s off
f 1/1/1 2/2/1 4/3/1 3/4/1
f 3/4/2 4/3/2 8/5/2 7/6/2
f 7/6/3 8/5/3 6/7/3 5/8/3
f 5/8/4 6/7/4 2/9/4 1/10/4
f 3/11/5 7/6/5 5/8/5 1/12/5
f 8/5/6 4/13/6 2/14/6 6/7/6
f 9/15/7 10/16/7 12/17/7 11/18/7
f 11/18/8 12/17/8 14/19/8 13/20/8
f 13/20/9 14/19/9 16/21/9 15/22/9
f 15/22/10 16/21/10 18/23/10 17/24/10
f 17/24/11 18/23/11 20/25/11 19/26/11
f 19/26/12 20/25/12 22/27/12 21/28/12
f 21/28/13 22/27/13 24/29/13 23/30/13
f 23/30/14 24/29/14 26/31/14 25/32/14
f 25/32/15 26/31/15 28/33/15 27/34/15
f 27/34/16 28/33/16 30/35/16 29/36/16
f 29/36/17 30/35/17 32/37/17 31/38/17
f 31/38/18 32/37/18 34/39/18 33/40/18
f 33/40/19 34/39/19 36/41/19 35/42/19
f 35/42/20 36/41/20 38/43/20 37/44/20
f 37/44/21 38/43/21 40/45/21 39/46/21
f 39/46/22 40/45/22 42/47/22 41/48/22
f 41/48/23 42/47/23 44/49/23 43/50/23
f 43/50/24 44/49/24 46/51/24 45/52/24
f 45/52/25 46/51/25 48/53/25 47/54/25
f 47/54/26 48/53/26 50/55/26 49/56/26
f 49/56/27 50/55/27 52/57/27 51/58/27
f 51/58/28 52/57/28 54/59/28 53/60/28
f 53/60/29 54/59/29 56/61/29 55/62/29
f 55/62/30 56/61/30 58/63/30 57/64/30
f 57/64/31 58/63/31 60/65/31 59/66/31
f 59/66/32 60/65/32 62/67/32 61/68/32
f 61/68/33 62/67/33 64/69/33 63/70/33
f 63/70/34 64/69/34 66/71/34 65/72/34
f 65/72/35 66/71/35 68/73/35 67/74/35
f 67/74/36 68/73/36 70/75/36 69/76/36
f 12/77/4 10/78/4 72/79/4 70/80/4 68/81/4 66/82/4 64/83/4 62/84/4 60/85/4 58/86/4 56/87/4 54/88/4 52/89/4 50/90/4 48/91/4 46/92/4 44/93/4 42/94/4 40/95/4 38/96/4 36/97/4 34/98/4 32/99/4 30/100/4 28/101/4 26/102/4 24/103/4 22/104/4 20/105/4 18/106/4 16/107/4 14/108/4
f 69/76/37 70/75/37 72/109/37 71/110/37
f 71/110/38 72/109/38 10/111/38 9/112/38
f 9/113/2 11/114/2 13/115/2 15/116/2 17/117/2 19/118/2 21/119/2 23/120/2 25/121/2 27/122/2 29/123/2 31/124/2 33/125/2 35/126/2 37/127/2 39/128/2 41/129/2 43/130/2 45/131/2 47/132/2 49/133/2 51/134/2 53/135/2 55/136/2 57/137/2 59/138/2 61/139/2 63/140/2 65/141/2 67/142/2 69/143/2 71/144/2
f 73/145/7 74/146/7 76/147/7 75/148/7
f 75/148/8 76/147/8 78/149/8 77/150/8
f 77/150/9 78/149/9 80/151/9 79/152/9
f 79/152/10 80/151/10 82/153/10 81/154/10
f 81/154/11 82/153/11 84/155/11 83/156/11
f 83/156/12 84/155/12 86/157/12 85/158/12
f 85/158/13 86/157/13 88/159/13 87/160/13
f 87/160/14 88/159/14 90/161/14 89/162/14
f 89/162/15 90/161/15 92/163/15 91/164/15
f 91/164/16 92/163/16 94/165/16 93/166/16
f 93/166/17 94/165/17 96/167/17 95/168/17
f 95/168/18 96/167/18 98/169/18 97/170/18
f 97/170/19 98/169/19 100/171/19 99/172/19
f 99/172/20 100/171/20 102/173/20 101/174/20
f 101/174/21 102/173/21 104/175/21 103/176/21
f 103/176/22 104/175/22 106/177/22 105/178/22
f 105/178/23 106/177/23 108/179/23 107/180/23
f 107/180/24 108/179/24 110/181/24 109/182/24
f 109/182/25 110/181/25 112/183/25 111/184/25
f 111/184/26 112/183/26 114/185/26 113/186/26
f 113/186/27 114/185/27 116/187/27 115/188/27
f 115/188/28 116/187/28 118/189/28 117/190/28
f 117/190/29 118/189/29 120/191/29 119/192/29
f 119/192/30 120/191/30 122/193/30 121/194/30
f 121/194/31 122/193/31 124/195/31 123/196/31
f 123/196/32 124/195/32 126/197/32 125/198/32
f 125/198/33 126/197/33 128/199/33 127/200/33
f 127/200/34 128/199/34 130/201/34 129/202/34
f 129/202/35 130/201/35 132/203/35 131/204/35
f 131/204/36 132/203/36 134/205/36 133/206/36
f 76/207/4 74/208/4 136/209/4 134/210/4 132/211/4 130/212/4 128/213/4 126/214/4 124/215/4 122/216/4 120/217/4 118/218/4 116/219/4 114/220/4 112/221/4 110/222/4 108/223/4 106/224/4 104/225/4 102/226/4 100/227/4 98/228/4 96/229/4 94/230/4 92/231/4 90/232/4 88/233/4 86/234/4 84/235/4 82/236/4 80/237/4 78/238/4
f 133/206/37 134/205/37 136/239/37 135/240/37
f 135/240/38 136/239/38 74/241/38 73/242/38
f 73/243/2 75/244/2 77/245/2 79/246/2 81/247/2 83/248/2 85/249/2 87/250/2 89/251/2 91/252/2 93/253/2 95/254/2 97/255/2 99/256/2 101/257/2 103/258/2 105/259/2 107/260/2 109/261/2 111/262/2 113/263/2 115/264/2 117/265/2 119/266/2 121/267/2 123/268/2 125/269/2 127/270/2 129/271/2 131/272/2 133/273/2 135/274/2
o Cube.011_Cube.018
v -1.530463 6.293865 1.541728
v -1.530463 6.395856 1.541728
v -1.530463 6.293865 1.486960
v -1.530463 6.395856 1.486960
v -0.470714 6.293865 1.541728
v -0.470714 6.395856 1.541728
v -0.470714 6.293865 1.486960
v -0.470714 6.395856 1.486960
v -1.571480 6.466767 1.333971
v -1.571480 6.466767 1.902846
v -1.551026 6.464753 1.333971
v -1.551026 6.464753 1.902846
v -1.531359 6.458787 1.333971
v -1.531359 6.458787 1.902846
v -1.513233 6.449099 1.333971
v -1.513233 6.449099 1.902846
v -1.497346 6.436060 1.333971
v -1.497346 6.436060 1.902846
v -1.484307 6.420173 1.333971
v -1.484307 6.420173 1.902846
v -1.474619 6.402047 1.333971
v -1.474619 6.402047 1.902846
v -1.468653 6.382380 1.333971
v -1.468653 6.382380 1.902846
v -1.466638 6.361926 1.333971
v -1.466638 6.361926 1.902846
v -1.468653 6.341472 1.333971
v -1.468653 6.341472 1.902846
v -1.474619 6.321805 1.333971
v -1.474619 6.321805 1.902846
v -1.484307 6.303679 1.333971
v -1.484307 6.303679 1.902846
v -1.497346 6.287792 1.333971
v -1.497346 6.287792 1.902846
v -1.513233 6.274753 1.333971
v -1.513233 6.274753 1.902846
v -1.531359 6.265065 1.333971
v -1.531359 6.265065 1.902846
v -1.551026 6.259099 1.333971
v -1.551026 6.259099 1.902846
v -1.571480 6.257084 1.333971
v -1.571480 6.257084 1.902846
v -1.591934 6.259099 1.333971
v -1.591934 6.259099 1.902846
v -1.611601 6.265065 1.333971
v -1.611601 6.265065 1.902846
v -1.629727 6.274753 1.333971
v -1.629727 6.274753 1.902846
v -1.645614 6.287792 1.333971
v -1.645614 6.287792 1.902846
v -1.658653 6.303679 1.333971
v -1.658653 6.303679 1.902846
v -1.668341 6.321805 1.333971
v -1.668341 6.321805 1.902846
v -1.674307 6.341472 1.333971
v -1.674307 6.341472 1.902846
v -1.676322 6.361926 1.333971
v -1.676322 6.361926 1.902846
v -1.674307 6.382380 1.333971
v -1.674307 6.382380 1.902846
v -1.668341 6.402047 1.333971
v -1.668341 6.402047 1.902846
v -1.658653 6.420173 1.333971
v -1.658653 6.420173 1.902846
v -1.645614 6.436060 1.333971
v -1.645614 6.436060 1.902846
v -1.629727 6.449099 1.333971
v -1.629727 6.449099 1.902846
v -1.611601 6.458787 1.333971
v -1.611601 6.458787 1.902846
v -1.591934 6.464753 1.333971
v -1.591934 6.464753 1.902846
v -1.571480 6.546272 1.333971
v -1.535516 6.542729 1.333971
v -1.535516 6.542729 1.902846
v -1.571480 6.546272 1.902846
v -1.500934 6.532239 1.333971
v -1.500934 6.532239 1.902846
v -1.469063 6.515204 1.333971
v -1.469063 6.515204 1.902846
v -1.441128 6.492278 1.333971
v -1.441128 6.492278 1.902846
v -1.418202 6.464343 1.333971
v -1.418202 6.464343 1.902846
v -1.401167 6.432472 1.333971
v -1.401167 6.432472 1.902846
v -1.390676 6.397890 1.333971
v -1.390676 6.397890 1.902846
v -1.387134 6.361926 1.333971
v -1.387134 6.361926 1.902846
v -1.390676 6.325962 1.333971
v -1.390676 6.325962 1.902846
v -1.401167 6.291379 1.333971
v -1.401167 6.291379 1.902846
v -1.418202 6.259509 1.333971
v -1.418202 6.259509 1.902846
v -1.441128 6.231574 1.333971
v -1.441128 6.231574 1.902846
v -1.469063 6.208648 1.333971
v -1.469063 6.208648 1.902846
v -1.500934 6.191612 1.333971
v -1.500934 6.191612 1.902846
v -1.535516 6.181122 1.333971
v -1.535516 6.181122 1.902846
v -1.571480 6.177580 1.333971
v -1.571480 6.177580 1.902846
v -1.607444 6.181122 1.333971
v -1.607444 6.181122 1.902846
v -1.642026 6.191612 1.333971
v -1.642026 6.191612 1.902846
v -1.673897 6.208648 1.333971
v -1.673897 6.208648 1.902846
v -1.701832 6.231574 1.333971
v -1.701832 6.231574 1.902846
v -1.724758 6.259509 1.333971
v -1.724758 6.259509 1.902846
v -1.741794 6.291379 1.333971
v -1.741794 6.291379 1.902846
v -1.752284 6.325962 1.333971
v -1.752284 6.325962 1.902846
v -1.755826 6.361926 1.333971
v -1.755826 6.361926 1.902846
v -1.752284 6.397890 1.333971
v -1.752284 6.397890 1.902846
v -1.741794 6.432472 1.333971
v -1.741794 6.432472 1.902846
v -1.724758 6.464343 1.333971
v -1.724758 6.464343 1.902846
v -1.701832 6.492278 1.333971
v -1.701832 6.492278 1.902846
v -1.673897 6.515204 1.333971
v -1.673897 6.515204 1.902846
v -1.642026 6.532239 1.333971
v -1.642026 6.532239 1.902846
v -1.607444 6.542729 1.333971
v -1.607444 6.542729 1.902846
v -1.551026 6.464753 1.965438
v -1.571480 6.466767 1.965438
v -1.531359 6.458787 1.965438
v -1.513233 6.449099 1.965438
v -1.497346 6.436060 1.965438
v -1.484307 6.420173 1.965438
v -1.474619 6.402047 1.965438
v -1.468653 6.382380 1.965438
v -1.466638 6.361926 1.965438
v -1.468653 6.341472 1.965438
v -1.474619 6.321805 1.965438
v -1.484307 6.303679 1.965438
v -1.497346 6.287792 1.965438
v -1.513233 6.274753 1.965438
v -1.531359 6.265065 1.965438
v -1.551026 6.259099 1.965438
v -1.571480 6.257084 1.965438
v -1.591934 6.259099 1.965438
v -1.611601 6.265065 1.965438
v -1.629727 6.274753 1.965438
v -1.645614 6.287792 1.965438
v -1.658653 6.303679 1.965438
v -1.668341 6.321805 1.965438
v -1.674307 6.341472 1.965438
v -1.676322 6.361926 1.965438
v -1.674307 6.382380 1.965438
v -1.668341 6.402047 1.965438
v -1.658653 6.420173 1.965438
v -1.645614 6.436060 1.965438
v -1.629727 6.449099 1.965438
v -1.611601 6.458787 1.965438
v -1.591934 6.464753 1.965438
v -1.571480 6.466767 1.260349
v -1.551026 6.464753 1.260349
v -1.531359 6.458787 1.260349
v -1.513233 6.449099 1.260349
v -1.497346 6.436060 1.260349
v -1.484307 6.420173 1.260349
v -1.474619 6.402047 1.260349
v -1.468653 6.382380 1.260349
v -1.466638 6.361926 1.260349
v -1.468653 6.341472 1.260349
v -1.474619 6.321805 1.260349
v -1.484307 6.303679 1.260349
v -1.497346 6.287792 1.260349
v -1.513233 6.274753 1.260349
v -1.531359 6.265065 1.260349
v -1.551026 6.259099 1.260349
v -1.571480 6.257084 1.260349
v -1.591934 6.259099 1.260349
v -1.611601 6.265065 1.260349
v -1.629727 6.274753 1.260349
v -1.645614 6.287792 1.260349
v -1.658653 6.303679 1.260349
v -1.668341 6.321805 1.260349
v -1.674307 6.341472 1.260349
v -1.676322 6.361926 1.260349
v -1.674307 6.382380 1.260349
v -1.668341 6.402047 1.260349
v -1.658653 6.420173 1.260349
v -1.645614 6.436060 1.260349
v -1.629727 6.449099 1.260349
v -1.611601 6.458787 1.260349
v -1.591934 6.464753 1.260349
v -1.530463 6.293865 1.735572
v -1.530463 6.395856 1.735572
v -1.530463 6.293865 1.680804
v -1.530463 6.395856 1.680804
v -0.470713 6.293865 1.735572
v -0.470713 6.395856 1.735572
v -0.470713 6.293865 1.680804
v -0.470713 6.395856 1.680804
v -0.476088 6.540614 1.140318
v -0.476088 6.540613 2.096499
v -0.438889 6.536950 1.140318
v -0.438889 6.536950 2.096499
v -0.403120 6.526099 1.140318
v -0.403120 6.526099 2.096499
v -0.370154 6.508479 1.140318
v -0.370154 6.508479 2.096499
v -0.341260 6.484766 1.140318
v -0.341260 6.484766 2.096499
v -0.317547 6.455872 1.140318
v -0.317547 6.455872 2.096499
v -0.299927 6.422906 1.140318
v -0.299927 6.422906 2.096499
v -0.289076 6.387137 1.140318
v -0.289076 6.387137 2.096499
v -0.285412 6.349938 1.140318
v -0.285412 6.349938 2.096499
v -0.289076 6.312739 1.140318
v -0.289076 6.312739 2.096499
v -0.299927 6.276969 1.140318
v -0.299927 6.276969 2.096499
v -0.317547 6.244004 1.140318
v -0.317547 6.244004 2.096499
v -0.341260 6.215110 1.140318
v -0.341260 6.215110 2.096499
v -0.370154 6.191397 1.140318
v -0.370154 6.191397 2.096499
v -0.403120 6.173777 1.140318
v -0.403120 6.173777 2.096499
v -0.438889 6.162926 1.140318
v -0.438889 6.162926 2.096499
v -0.476088 6.159262 1.140318
v -0.476088 6.159262 2.096499
v -0.513287 6.162926 1.140318
v -0.513287 6.162926 2.096499
v -0.549056 6.173777 1.140318
v -0.549056 6.173777 2.096499
v -0.582022 6.191397 1.140318
v -0.582022 6.191397 2.096499
v -0.610916 6.215110 1.140318
v -0.610916 6.215110 2.096499
v -0.634629 6.244004 1.140318
v -0.634629 6.244004 2.096499
v -0.652249 6.276969 1.140318
v -0.652249 6.276969 2.096499
v -0.663100 6.312739 1.140318
v -0.663100 6.312739 2.096499
v -0.666763 6.349938 1.140318
v -0.666763 6.349938 2.096499
v -0.663100 6.387137 1.140318
v -0.663100 6.387137 2.096499
v -0.652249 6.422906 1.140318
v -0.652249 6.422906 2.096499
v -0.634629 6.455872 1.140318
v -0.634629 6.455872 2.096499
v -0.610916 6.484766 1.140318
v -0.610916 6.484766 2.096499
v -0.582022 6.508479 1.140318
v -0.582022 6.508479 2.096499
v -0.549056 6.526099 1.140318
v -0.549056 6.526099 2.096499
v -0.513287 6.536950 1.140318
v -0.513287 6.536950 2.096499
vt 0.375000 0.000000
vt 0.625000 0.000000
vt 0.625000 0.250000
vt 0.375000 0.250000
vt 0.625000 0.500000
vt 0.375000 0.500000
vt 0.625000 0.750000
vt 0.375000 0.750000
vt 0.625000 1.000000
vt 0.375000 1.000000
vt 0.125000 0.500000
vt 0.125000 0.750000
vt 0.875000 0.500000
vt 0.875000 0.750000
vt 1.000000 0.500000
vt 1.000000 1.000000
vt 0.968750 1.000000
vt 0.968750 0.500000
vt 0.937500 1.000000
vt 0.937500 0.500000
vt 0.906250 1.000000
vt 0.906250 0.500000
vt 0.875000 1.000000
vt 0.875000 0.500000
vt 0.843750 1.000000
vt 0.843750 0.500000
vt 0.812500 1.000000
vt 0.812500 0.500000
vt 0.781250 1.000000
vt 0.781250 0.500000
vt 0.750000 1.000000
vt 0.750000 0.500000
vt 0.718750 1.000000
vt 0.718750 0.500000
vt 0.687500 1.000000
vt 0.687500 0.500000
vt 0.656250 1.000000
vt 0.656250 0.500000
vt 0.625000 1.000000
vt 0.625000 0.500000
vt 0.593750 1.000000
vt 0.593750 0.500000
vt 0.562500 1.000000
vt 0.562500 0.500000
vt 0.531250 1.000000
vt 0.531250 0.500000
vt 0.500000 1.000000
vt 0.500000 0.500000
vt 0.468750 1.000000
vt 0.468750 0.500000
vt 0.437500 1.000000
vt 0.437500 0.500000
vt 0.406250 1.000000
vt 0.406250 0.500000
vt 0.375000 1.000000
vt 0.375000 0.500000
vt 0.343750 1.000000
vt 0.343750 0.500000
vt 0.312500 1.000000
vt 0.312500 0.500000
vt 0.281250 1.000000
vt 0.281250 0.500000
vt 0.250000 1.000000
vt 0.250000 0.500000
vt 0.218750 1.000000
vt 0.218750 0.500000
vt 0.187500 1.000000
vt 0.187500 0.500000
vt 0.156250 1.000000
vt 0.156250 0.500000
vt 0.125000 1.000000
vt 0.125000 0.500000
vt 0.093750 1.000000
vt 0.093750 0.500000
vt 0.062500 1.000000
vt 0.062500 0.500000
vt 0.174168 0.363490
vt 0.153485 0.346515
vt 0.153485 0.346515
vt 0.174168 0.363490
vt 0.031250 1.000000
vt 0.031250 0.500000
vt 0.000000 1.000000
vt 0.000000 0.500000
vt 0.776629 0.116129
vt 0.750000 0.113507
vt 0.750000 0.113507
vt 0.776629 0.116129
vt 0.776628 0.383871
vt 0.750000 0.386493
vt 0.750000 0.490000
vt 0.796822 0.485388
vt 0.250000 0.386493
vt 0.276628 0.383871
vt 0.296822 0.485388
vt 0.250000 0.490000
vt 0.802234 0.376103
vt 0.841844 0.471731
vt 0.302234 0.376103
vt 0.341844 0.471731
vt 0.825832 0.363490
vt 0.883337 0.449553
vt 0.325832 0.363490
vt 0.383337 0.449553
vt 0.846515 0.346515
vt 0.919706 0.419706
vt 0.346515 0.346515
vt 0.419706 0.419706
vt 0.863490 0.325832
vt 0.949553 0.383337
vt 0.363490 0.325832
vt 0.449553 0.383337
vt 0.876103 0.302234
vt 0.971731 0.341844
vt 0.376103 0.302234
vt 0.471731 0.341844
vt 0.883870 0.276629
vt 0.985388 0.296822
vt 0.383871 0.276628
vt 0.485388 0.296822
vt 0.886493 0.250000
vt 0.990000 0.250000
vt 0.386493 0.250000
vt 0.490000 0.250000
vt 0.883870 0.223371
vt 0.985388 0.203178
vt 0.383871 0.223372
vt 0.485388 0.203178
vt 0.876103 0.197766
vt 0.971731 0.158156
vt 0.376103 0.197766
vt 0.471731 0.158156
vt 0.863490 0.174168
vt 0.949553 0.116663
vt 0.363490 0.174168
vt 0.449553 0.116663
vt 0.846515 0.153485
vt 0.919706 0.080294
vt 0.346515 0.153485
vt 0.419706 0.080294
vt 0.825832 0.136510
vt 0.883337 0.050447
vt 0.325832 0.136510
vt 0.383337 0.050447
vt 0.802234 0.123897
vt 0.841844 0.028269
vt 0.302234 0.123897
vt 0.341844 0.028269
vt 0.796822 0.014612
vt 0.276628 0.116129
vt 0.296822 0.014612
vt 0.750000 0.010000
vt 0.250000 0.113507
vt 0.250000 0.010000
vt 0.723371 0.116129
vt 0.703178 0.014612
vt 0.223371 0.116129
vt 0.203178 0.014612
vt 0.697766 0.123897
vt 0.658156 0.028269
vt 0.197766 0.123897
vt 0.158156 0.028269
vt 0.674168 0.136510
vt 0.616663 0.050447
vt 0.174168 0.136510
vt 0.116663 0.050447
vt 0.653485 0.153485
vt 0.580294 0.080294
vt 0.153485 0.153485
vt 0.080294 0.080294
vt 0.636510 0.174168
vt 0.550447 0.116663
vt 0.136510 0.174168
vt 0.050447 0.116663
vt 0.623897 0.197766
vt 0.528269 0.158156
vt 0.123897 0.197766
vt 0.028269 0.158156
vt 0.616129 0.223371
vt 0.514612 0.203178
vt 0.116129 0.223372
vt 0.014612 0.203178
vt 0.613507 0.250000
vt 0.510000 0.250000
vt 0.113507 0.250000
vt 0.010000 0.250000
vt 0.616129 0.276629
vt 0.514612 0.296822
vt 0.116129 0.276628
vt 0.014612 0.296822
vt 0.623897 0.302234
vt 0.528269 0.341844
vt 0.123897 0.302234
vt 0.028269 0.341844
vt 0.636510 0.325832
vt 0.550447 0.383337
vt 0.136510 0.325832
vt 0.050447 0.383337
vt 0.653485 0.346515
vt 0.580294 0.419706
vt 0.080294 0.419706
vt 0.674168 0.363490
vt 0.616663 0.449553
vt 0.116663 0.449553
vt 0.697766 0.376103
vt 0.658156 0.471731
vt 0.197766 0.376103
vt 0.158156 0.471731
vt 0.723371 0.383871
vt 0.703178 0.485388
vt 0.223371 0.383871
vt 0.203178 0.485388
vt 0.276628 0.383871
vt 0.250000 0.386493
vt 0.223371 0.383871
vt 0.197766 0.376103
vt 0.136510 0.325832
vt 0.123897 0.302234
vt 0.116129 0.276628
vt 0.113507 0.250000
vt 0.116129 0.223372
vt 0.123897 0.197766
vt 0.136510 0.174168
vt 0.153485 0.153485
vt 0.174168 0.136510
vt 0.197766 0.123897
vt 0.223371 0.116129
vt 0.250000 0.113507
vt 0.276628 0.116129
vt 0.302234 0.123897
vt 0.325832 0.136510
vt 0.346515 0.153485
vt 0.363490 0.174168
vt 0.376103 0.197766
vt 0.383871 0.223372
vt 0.386493 0.250000
vt 0.383871 0.276628
vt 0.376103 0.302234
vt 0.363490 0.325832
vt 0.346515 0.346515
vt 0.325832 0.363490
vt 0.302234 0.376103
vt 0.750000 0.386493
vt 0.776628 0.383871
vt 0.802234 0.376103
vt 0.825832 0.363490
vt 0.846515 0.346515
vt 0.863490 0.325832
vt 0.876103 0.302234
vt 0.883870 0.276629
vt 0.886493 0.250000
vt 0.883870 0.223371
vt 0.876103 0.197766
vt 0.863490 0.174168
vt 0.846515 0.153485
vt 0.825832 0.136510
vt 0.802234 0.123897
vt 0.723371 0.116129
vt 0.697766 0.123897
vt 0.674168 0.136510
vt 0.653485 0.153485
vt 0.636510 0.174168
vt 0.623897 0.197766
vt 0.616129 0.223371
vt 0.613507 0.250000
vt 0.616129 0.276629
vt 0.623897 0.302234
vt 0.636510 0.325832
vt 0.653485 0.346515
vt 0.674168 0.363490
vt 0.697766 0.376103
vt 0.723371 0.383871
vt 0.375000 0.000000
vt 0.625000 0.000000
vt 0.625000 0.250000
vt 0.375000 0.250000
vt 0.625000 0.500000
vt 0.375000 0.500000
vt 0.625000 0.750000
vt 0.375000 0.750000
vt 0.625000 1.000000
vt 0.375000 1.000000
vt 0.125000 0.500000
vt 0.125000 0.750000
vt 0.875000 0.500000
vt 0.875000 0.750000
vt 1.000000 0.500000
vt 1.000000 1.000000
vt 0.968750 1.000000
vt 0.968750 0.500000
vt 0.937500 1.000000
vt 0.937500 0.500000
vt 0.906250 1.000000
vt 0.906250 0.500000
vt 0.875000 1.000000
vt 0.875000 0.500000
vt 0.843750 1.000000
vt 0.843750 0.500000
vt 0.812500 1.000000
vt 0.812500 0.500000
vt 0.781250 1.000000
vt 0.781250 0.500000
vt 0.750000 1.000000
vt 0.750000 0.500000
vt 0.718750 1.000000
vt 0.718750 0.500000
vt 0.687500 1.000000
vt 0.687500 0.500000
vt 0.656250 1.000000
vt 0.656250 0.500000
vt 0.625000 1.000000
vt 0.625000 0.500000
vt 0.593750 1.000000
vt 0.593750 0.500000
vt 0.562500 1.000000
vt 0.562500 0.500000
vt 0.531250 1.000000
vt 0.531250 0.500000
vt 0.500000 1.000000
vt 0.500000 0.500000
vt 0.468750 1.000000
vt 0.468750 0.500000
vt 0.437500 1.000000
vt 0.437500 0.500000
vt 0.406250 1.000000
vt 0.406250 0.500000
vt 0.375000 1.000000
vt 0.375000 0.500000
vt 0.343750 1.000000
vt 0.343750 0.500000
vt 0.312500 1.000000
vt 0.312500 0.500000
vt 0.281250 1.000000
vt 0.281250 0.500000
vt 0.250000 1.000000
vt 0.250000 0.500000
vt 0.218750 1.000000
vt 0.218750 0.500000
vt 0.187500 1.000000
vt 0.187500 0.500000
vt 0.156250 1.000000
vt 0.156250 0.500000
vt 0.125000 1.000000
vt 0.125000 0.500000
vt 0.093750 1.000000
vt 0.093750 0.500000
vt 0.062500 1.000000
vt 0.062500 0.500000
vt 0.296822 0.485388
vt 0.250000 0.490000
vt 0.203178 0.485388
vt 0.158156 0.471731
vt 0.116663 0.449553
vt 0.080294 0.419706
vt 0.050447 0.383337
vt 0.028269 0.341844
vt 0.014612 0.296822
vt 0.010000 0.250000
vt 0.014612 0.203178
vt 0.028269 0.158156
vt 0.050447 0.116663
vt 0.080294 0.080294
vt 0.116663 0.050447
vt 0.158156 0.028269
vt 0.203178 0.014612
vt 0.250000 0.010000
vt 0.296822 0.014612
vt 0.341844 0.028269
vt 0.383337 0.050447
vt 0.419706 0.080294
vt 0.449553 0.116663
vt 0.471731 0.158156
vt 0.485388 0.203178
vt 0.490000 0.250000
vt 0.485388 0.296822
vt 0.471731 0.341844
vt 0.449553 0.383337
vt 0.419706 0.419706
vt 0.383337 0.449553
vt 0.341844 0.471731
vt 0.031250 1.000000
vt 0.031250 0.500000
vt 0.000000 1.000000
vt 0.000000 0.500000
vt 0.750000 0.490000
vt 0.796822 0.485388
vt 0.841844 0.471731
vt 0.883337 0.449553
vt 0.919706 0.419706
vt 0.949553 0.383337
vt 0.971731 0.341844
vt 0.985388 0.296822
vt 0.990000 0.250000
vt 0.985388 0.203178
vt 0.971731 0.158156
vt 0.949553 0.116663
vt 0.919706 0.080294
vt 0.883337 0.050447
vt 0.841844 0.028269
vt 0.796822 0.014612
vt 0.750000 0.010000
vt 0.703178 0.014612
vt 0.658156 0.028269
vt 0.616663 0.050447
vt 0.580294 0.080294
vt 0.550447 0.116663
vt 0.528269 0.158156
vt 0.514612 0.203178
vt 0.510000 0.250000
vt 0.514612 0.296822
vt 0.528269 0.341844
vt 0.550447 0.383337
vt 0.580294 0.419706
vt 0.616663 0.449553
vt 0.658156 0.471731
vt 0.703178 0.485388
vn -1.0000 0.0000 0.0000
vn 0.0000 0.0000 -1.0000
vn 1.0000 0.0000 0.0000
vn 0.0000 0.0000 1.0000
vn 0.0000 -1.0000 0.0000
vn 0.0000 1.0000 0.0000
vn 0.0980 0.9952 0.0000
vn 0.2903 0.9569 0.0000
vn 0.4714 0.8819 0.0000
vn 0.6344 0.7730 0.0000
vn 0.7730 0.6344 0.0000
vn 0.8819 0.4714 0.0000
vn 0.9569 0.2903 0.0000
vn 0.9952 0.0980 0.0000
vn 0.9952 -0.0980 0.0000
vn 0.9569 -0.2903 0.0000
vn 0.8819 -0.4714 0.0000
vn 0.7730 -0.6344 0.0000
vn 0.6344 -0.7730 0.0000
vn 0.4714 -0.8819 0.0000
vn 0.2903 -0.9569 0.0000
vn 0.0980 -0.9952 0.0000
vn -0.0980 -0.9952 0.0000
vn -0.2903 -0.9569 0.0000
vn -0.4714 -0.8819 0.0000
vn -0.6344 -0.7730 0.0000
vn -0.7730 -0.6344 0.0000
vn -0.8819 -0.4714 0.0000
vn -0.9569 -0.2903 0.0000
vn -0.9952 -0.0980 0.0000
vn -0.9952 0.0980 0.0000
vn -0.9569 0.2903 0.0000
vn -0.8819 0.4714 0.0000
vn -0.7730 0.6344 0.0000
vn -0.6344 0.7730 0.0000
vn -0.4714 0.8819 0.0000
vn -0.2903 0.9569 0.0000
vn -0.0980 0.9952 0.0000
usemtl None
s off
f 137/275/39 138/276/39 140/277/39 139/278/39
f 139/278/40 140/277/40 144/279/40 143/280/40
f 143/280/41 144/279/41 142/281/41 141/282/41
f 141/282/42 142/281/42 138/283/42 137/284/42
f 139/285/43 143/280/43 141/282/43 137/286/43
f 144/279/44 140/287/44 138/288/44 142/281/44
f 209/289/45 212/290/45 211/291/45 210/292/45
f 210/292/46 211/291/46 214/293/46 213/294/46
f 213/294/47 214/293/47 216/295/47 215/296/47
f 215/296/48 216/295/48 218/297/48 217/298/48
f 217/298/49 218/297/49 220/299/49 219/300/49
f 219/300/50 220/299/50 222/301/50 221/302/50
f 221/302/51 222/301/51 224/303/51 223/304/51
f 223/304/52 224/303/52 226/305/52 225/306/52
f 225/306/53 226/305/53 228/307/53 227/308/53
f 227/308/54 228/307/54 230/309/54 229/310/54
f 229/310/55 230/309/55 232/311/55 231/312/55
f 231/312/56 232/311/56 234/313/56 233/314/56
f 233/314/57 234/313/57 236/315/57 235/316/57
f 235/316/58 236/315/58 238/317/58 237/318/58
f 237/318/59 238/317/59 240/319/59 239/320/59
f 239/320/60 240/319/60 242/321/60 241/322/60
f 241/322/61 242/321/61 244/323/61 243/324/61
f 243/324/62 244/323/62 246/325/62 245/326/62
f 245/326/63 246/325/63 248/327/63 247/328/63
f 247/328/64 248/327/64 250/329/64 249/330/64
f 249/330/65 250/329/65 252/331/65 251/332/65
f 251/332/66 252/331/66 254/333/66 253/334/66
f 253/334/67 254/333/67 256/335/67 255/336/67
f 255/336/68 256/335/68 258/337/68 257/338/68
f 257/338/69 258/337/69 260/339/69 259/340/69
f 259/340/70 260/339/70 262/341/70 261/342/70
f 261/342/71 262/341/71 264/343/71 263/344/71
f 263/344/72 264/343/72 266/345/72 265/346/72
f 265/346/73 266/345/73 268/347/73 267/348/73
f 267/348/74 268/347/74 270/349/74 269/350/74
f 204/351/73 202/352/73 301/353/73 302/354/73
f 269/350/75 270/349/75 272/355/75 271/356/75
f 271/356/76 272/355/76 212/357/76 209/358/76
f 175/359/60 177/360/60 321/361/60 320/362/60
f 147/363/40 145/364/40 209/365/40 210/366/40
f 146/367/42 148/368/42 211/369/42 212/370/42
f 149/371/40 147/363/40 210/366/40 213/372/40
f 148/368/42 150/373/42 214/374/42 211/369/42
f 151/375/40 149/371/40 213/372/40 215/376/40
f 150/373/42 152/377/42 216/378/42 214/374/42
f 153/379/40 151/375/40 215/376/40 217/380/40
f 152/377/42 154/381/42 218/382/42 216/378/42
f 155/383/40 153/379/40 217/380/40 219/384/40
f 154/381/42 156/385/42 220/386/42 218/382/42
f 157/387/40 155/383/40 219/384/40 221/388/40
f 156/385/42 158/389/42 222/390/42 220/386/42
f 159/391/40 157/387/40 221/388/40 223/392/40
f 158/389/42 160/393/42 224/394/42 222/390/42
f 161/395/40 159/391/40 223/392/40 225/396/40
f 160/393/42 162/397/42 226/398/42 224/394/42
f 163/399/40 161/395/40 225/396/40 227/400/40
f 162/397/42 164/401/42 228/402/42 226/398/42
f 165/403/40 163/399/40 227/400/40 229/404/40
f 164/401/42 166/405/42 230/406/42 228/402/42
f 167/407/40 165/403/40 229/404/40 231/408/40
f 166/405/42 168/409/42 232/410/42 230/406/42
f 169/411/40 167/407/40 231/408/40 233/412/40
f 168/409/42 170/413/42 234/414/42 232/410/42
f 171/415/40 169/411/40 233/412/40 235/416/40
f 170/413/42 172/417/42 236/418/42 234/414/42
f 173/419/40 171/415/40 235/416/40 237/420/40
f 172/417/42 174/421/42 238/422/42 236/418/42
f 175/359/40 173/419/40 237/420/40 239/423/40
f 174/421/42 176/424/42 240/425/42 238/422/42
f 177/360/40 175/359/40 239/423/40 241/426/40
f 176/424/42 178/427/42 242/428/42 240/425/42
f 179/429/40 177/360/40 241/426/40 243/430/40
f 178/427/42 180/431/42 244/432/42 242/428/42
f 181/433/40 179/429/40 243/430/40 245/434/40
f 180/431/42 182/435/42 246/436/42 244/432/42
f 183/437/40 181/433/40 245/434/40 247/438/40
f 182/435/42 184/439/42 248/440/42 246/436/42
f 185/441/40 183/437/40 247/438/40 249/442/40
f 184/439/42 186/443/42 250/444/42 248/440/42
f 187/445/40 185/441/40 249/442/40 251/446/40
f 186/443/42 188/447/42 252/448/42 250/444/42
f 189/449/40 187/445/40 251/446/40 253/450/40
f 188/447/42 190/451/42 254/452/42 252/448/42
f 191/453/40 189/449/40 253/450/40 255/454/40
f 190/451/42 192/455/42 256/456/42 254/452/42
f 193/457/40 191/453/40 255/454/40 257/458/40
f 192/455/42 194/459/42 258/460/42 256/456/42
f 195/461/40 193/457/40 257/458/40 259/462/40
f 194/459/42 196/463/42 260/464/42 258/460/42
f 197/465/40 195/461/40 259/462/40 261/466/40
f 196/463/42 198/467/42 262/468/42 260/464/42
f 199/469/40 197/465/40 261/466/40 263/470/40
f 198/467/42 200/471/42 264/472/42 262/468/42
f 201/473/40 199/469/40 263/470/40 265/474/40
f 200/471/42 202/352/42 266/475/42 264/472/42
f 203/476/40 201/473/40 265/474/40 267/477/40
f 202/352/42 204/351/42 268/478/42 266/475/42
f 205/479/40 203/476/40 267/477/40 269/480/40
f 204/351/42 206/481/42 270/482/42 268/478/42
f 207/483/40 205/479/40 269/480/40 271/484/40
f 206/481/42 208/485/42 272/486/42 270/482/42
f 145/364/40 207/483/40 271/484/40 209/365/40
f 208/485/42 146/367/42 212/370/42 272/486/42
f 273/487/42 274/488/42 304/489/42 303/490/42 302/354/42 301/353/42 300/491/42 299/492/42 298/493/42 297/494/42 296/495/42 295/496/42 294/497/42 293/498/42 292/499/42 291/500/42 290/501/42 289/502/42 288/503/42 287/504/42 286/505/42 285/506/42 284/507/42 283/508/42 282/509/42 281/510/42 280/511/42 279/512/42 278/513/42 277/514/42 276/515/42 275/516/42
f 164/401/53 162/397/53 281/510/53 282/509/53
f 178/427/60 176/424/60 288/503/60 289/502/60
f 192/455/67 190/451/67 295/496/67 296/495/67
f 152/377/47 150/373/47 275/516/47 276/515/47
f 206/481/74 204/351/74 302/354/74 303/490/74
f 166/405/54 164/401/54 282/509/54 283/508/54
f 180/431/61 178/427/61 289/502/61 290/501/61
f 194/459/68 192/455/68 296/495/68 297/494/68
f 154/381/48 152/377/48 276/515/48 277/514/48
f 208/485/75 206/481/75 303/490/75 304/489/75
f 168/409/55 166/405/55 283/508/55 284/507/55
f 182/435/62 180/431/62 290/501/62 291/500/62
f 196/463/69 194/459/69 297/494/69 298/493/69
f 156/385/49 154/381/49 277/514/49 278/513/49
f 146/367/76 208/485/76 304/489/76 274/488/76
f 170/413/56 168/409/56 284/507/56 285/506/56
f 184/439/63 182/435/63 291/500/63 292/499/63
f 198/467/70 196/463/70 298/493/70 299/492/70
f 158/389/50 156/385/50 278/513/50 279/512/50
f 172/417/57 170/413/57 285/506/57 286/505/57
f 186/443/64 184/439/64 292/499/64 293/498/64
f 200/471/71 198/467/71 299/492/71 300/491/71
f 160/393/51 158/389/51 279/512/51 280/511/51
f 174/421/58 172/417/58 286/505/58 287/504/58
f 188/447/65 186/443/65 293/498/65 294/497/65
f 148/368/45 146/367/45 274/488/45 273/487/45
f 202/352/72 200/471/72 300/491/72 301/353/72
f 162/397/52 160/393/52 280/511/52 281/510/52
f 176/424/59 174/421/59 287/504/59 288/503/59
f 190/451/66 188/447/66 294/497/66 295/496/66
f 150/373/46 148/368/46 273/487/46 275/516/46
f 305/517/40 306/518/40 307/519/40 308/520/40 309/521/40 310/522/40 311/523/40 312/524/40 313/525/40 314/526/40 315/527/40 316/528/40 317/529/40 318/530/40 319/531/40 320/362/40 321/361/40 322/532/40 323/533/40 324/534/40 325/535/40 326/536/40 327/537/40 328/538/40 329/539/40 330/540/40 331/541/40 332/542/40 333/543/40 334/544/40 335/545/40 336/546/40
f 189/449/67 191/453/67 328/538/67 327/537/67
f 149/371/47 151/375/47 308/520/47 307/519/47
f 203/476/74 205/479/74 335/545/74 334/544/74
f 163/399/54 165/403/54 315/527/54 314/526/54
f 177/360/61 179/429/61 322/532/61 321/361/61
f 191/453/68 193/457/68 329/539/68 328/538/68
f 151/375/48 153/379/48 309/521/48 308/520/48
f 205/479/75 207/483/75 336/546/75 335/545/75
f 165/403/55 167/407/55 316/528/55 315/527/55
f 179/429/62 181/433/62 323/533/62 322/532/62
f 193/457/69 195/461/69 330/540/69 329/539/69
f 153/379/49 155/383/49 310/522/49 309/521/49
f 207/483/76 145/364/76 305/517/76 336/546/76
f 167/407/56 169/411/56 317/529/56 316/528/56
f 181/433/63 183/437/63 324/534/63 323/533/63
f 195/461/70 197/465/70 331/541/70 330/540/70
f 155/383/50 157/387/50 311/523/50 310/522/50
f 169/411/57 171/415/57 318/530/57 317/529/57
f 183/437/64 185/441/64 325/535/64 324/534/64
f 197/465/71 199/469/71 332/542/71 331/541/71
f 157/387/51 159/391/51 312/524/51 311/523/51
f 171/415/58 173/419/58 319/531/58 318/530/58
f 185/441/65 187/445/65 326/536/65 325/535/65
f 145/364/45 147/363/45 306/518/45 305/517/45
f 199/469/72 201/473/72 333/543/72 332/542/72
f 159/391/52 161/395/52 313/525/52 312/524/52
f 173/419/59 175/359/59 320/362/59 319/531/59
f 187/445/66 189/449/66 327/537/66 326/536/66
f 147/363/46 149/371/46 307/519/46 306/518/46
f 201/473/73 203/476/73 334/544/73 333/543/73
f 161/395/53 163/399/53 314/526/53 313/525/53
f 337/547/39 338/548/39 340/549/39 339/550/39
f 339/550/40 340/549/40 344/551/40 343/552/40
f 343/552/41 344/551/41 342/553/41 341/554/41
f 341/554/42 342/553/42 338/555/42 337/556/42
f 339/557/43 343/552/43 341/554/43 337/558/43
f 344/551/44 340/559/44 338/560/44 342/553/44
f 345/561/45 346/562/45 348/563/45 347/564/45
f 347/564/46 348/563/46 350/565/46 349/566/46
f 349/566/47 350/565/47 352/567/47 351/568/47
f 351/568/48 352/567/48 354/569/48 353/570/48
f 353/570/49 354/569/49 356/571/49 355/572/49
f 355/572/50 356/571/50 358/573/50 357/574/50
f 357/574/51 358/573/51 360/575/51 359/576/51
f 359/576/52 360/575/52 362/577/52 361/578/52
f 361/578/53 362/577/53 364/579/53 363/580/53
f 363/580/54 364/579/54 366/581/54 365/582/54
f 365/582/55 366/581/55 368/583/55 367/584/55
f 367/584/56 368/583/56 370/585/56 369/586/56
f 369/586/57 370/585/57 372/587/57 371/588/57
f 371/588/58 372/587/58 374/589/58 373/590/58
f 373/590/59 374/589/59 376/591/59 375/592/59
f 375/592/60 376/591/60 378/593/60 377/594/60
f 377/594/61 378/593/61 380/595/61 379/596/61
f 379/596/62 380/595/62 382/597/62 381/598/62
f 381/598/63 382/597/63 384/599/63 383/600/63
f 383/600/64 384/599/64 386/601/64 385/602/64
f 385/602/65 386/601/65 388/603/65 387/604/65
f 387/604/66 388/603/66 390/605/66 389/606/66
f 389/606/67 390/605/67 392/607/67 391/608/67
f 391/608/68 392/607/68 394/609/68 393/610/68
f 393/610/69 394/609/69 396/611/69 395/612/69
f 395/612/70 396/611/70 398/613/70 397/614/70
f 397/614/71 398/613/71 400/615/71 399/616/71
f 399/616/72 400/615/72 402/617/72 401/618/72
f 401/618/73 402/617/73 404/619/73 403/620/73
f 403/620/74 404/619/74 406/621/74 405/622/74
f 348/623/42 346/624/42 408/625/42 406/626/42 404/627/42 402/628/42 400/629/42 398/630/42 396/631/42 394/632/42 392/633/42 390/634/42 388/635/42 386/636/42 384/637/42 382/638/42 380/639/42 378/640/42 376/641/42 374/642/42 372/643/42 370/644/42 368/645/42 366/646/42 364/647/42 362/648/42 360/649/42 358/650/42 356/651/42 354/652/42 352/653/42 350/654/42
f 405/622/75 406/621/75 408/655/75 407/656/75
f 407/656/76 408/655/76 346/657/76 345/658/76
f 345/659/40 347/660/40 349/661/40 351/662/40 353/663/40 355/664/40 357/665/40 359/666/40 361/667/40 363/668/40 365/669/40 367/670/40 369/671/40 371/672/40 373/673/40 375/674/40 377/675/40 379/676/40 381/677/40 383/678/40 385/679/40 387/680/40 389/681/40 391/682/40 393/683/40 395/684/40 397/685/40 399/686/40 401/687/40 403/688/40 405/689/40 407/690/40
