# Blender v3.6.10 OBJ File: 'TownOne.blend'
# www.blender.org
mtllib PlayerCharacter.mtl
o Player_Cube.005
v -0.928451 2.013448 0.985614
v -0.664704 4.359153 1.188122
v -0.907523 2.262712 -0.886466
v -0.916380 4.695251 -0.856036
v 0.970888 2.021656 0.964696
v 0.664704 4.359153 1.188122
v 0.907523 2.262712 -0.886466
v 0.916380 4.695251 -0.856036
v 0.000000 2.264326 -1.244853
v -0.000000 5.009925 -1.035367
v 0.000000 4.751456 1.274107
v -1.361526 2.155583 -0.065555
v -0.901887 4.663791 0.040577
v 1.361642 2.155803 -0.065792
v 0.901887 4.663791 0.040577
v 0.000000 5.155244 0.047849
v -1.173475 3.828331 1.084946
v -1.702064 2.359531 0.861576
v -1.592032 3.218783 0.962517
v -1.166020 2.780452 -1.090639
v -1.154659 4.116951 -1.095174
v -1.236654 3.465067 -1.187088
v 1.154658 4.116951 -1.095174
v 1.166020 2.780452 -1.090639
v 1.236653 3.465067 -1.187088
v 1.702287 2.359926 0.861518
v 1.173475 3.828331 1.084946
v 1.592032 3.218783 0.962517
v -0.000000 4.324914 -1.627588
v -0.000000 2.729126 -1.570920
v -0.000000 3.486019 -1.823751
v 1.741779 2.600412 -0.129866
v 1.399125 4.012807 -0.026294
v 1.674092 3.395131 -0.102338
v -1.741771 2.600382 -0.129856
v -1.399125 4.012807 -0.026294
v -1.674092 3.395131 -0.102338
v -1.756095 -0.257766 1.159228
v -1.508223 -0.249928 -1.400066
v 1.804392 -0.259017 1.130873
v 1.508223 -0.249928 -1.400066
v -0.000000 -0.215153 -2.034509
v -2.084017 -0.305850 -0.032433
v 2.084005 -0.305884 -0.032925
v 0.491993 2.006623 1.174030
v 0.009732 0.130643 1.837524
v 0.005489 2.081022 1.127809
v 0.470913 0.147669 1.689929
v -0.121451 2.062548 1.179520
v -0.868255 -0.226516 1.755592
v 1.134029 -0.233272 1.638333
v 0.386021 2.109822 1.102588
v 0.000000 1.812005 -1.342276
v 0.981810 1.787185 -0.945803
v 1.453417 1.724972 -0.032111
v 1.096023 1.673081 0.892013
v -0.981810 1.787185 -0.945803
v -1.453413 1.725006 -0.031529
v -1.047619 1.664244 0.917500
v 0.503867 1.572477 1.324891
v 0.029786 1.661860 1.225016
v -0.276454 1.613014 1.291967
v 0.539209 1.659155 1.197578
v -1.256298 2.070443 0.424777
v -0.959374 4.706646 -0.493237
v -0.484430 2.268520 -1.144986
v 0.566447 4.891282 -0.981350
v 1.224966 2.224695 -0.517045
v 0.793040 4.535301 0.612241
v 0.484430 2.268520 -1.144986
v -0.359966 4.621088 1.244248
v -0.566447 4.891282 -0.981350
v 0.359966 4.621088 1.244248
v 0.000000 4.993296 0.659499
v -1.224966 2.224695 -0.517045
v -0.793040 4.535301 0.612241
v 1.261899 2.072431 0.421942
v 0.959374 4.706646 -0.493237
v 0.000000 5.164460 -0.535326
v -0.496155 4.995413 0.048152
v 0.496155 4.995413 0.048152
v -1.208383 3.792450 -1.160184
v -0.657913 4.246212 -1.477146
v -0.000000 3.911528 -1.776929
v -0.690528 3.479813 -1.631023
v -1.234150 3.124231 -1.165640
v -0.000000 3.082222 -1.741237
v -0.632243 2.759219 -1.432363
v 1.551321 3.718068 -0.067570
v 1.308395 3.935029 0.532875
v 1.392824 3.551167 1.025934
v 1.663286 3.316845 0.438923
v 1.768513 3.003703 -0.125965
v 1.748719 2.797537 0.902291
v 1.769129 2.478327 0.375834
v 0.657913 4.246212 -1.477146
v 1.208382 3.792450 -1.160184
v 0.690528 3.479813 -1.631023
v 1.234149 3.124231 -1.165640
v 0.632243 2.759219 -1.432363
v -1.551322 3.718068 -0.067570
v -1.381744 4.053338 -0.584767
v -1.554222 3.441799 -0.656002
v -1.768514 3.003703 -0.125965
v -1.542430 2.717610 -0.637090
v 1.381744 4.053338 -0.584767
v 1.554222 3.441799 -0.656002
v 1.542429 2.717611 -0.637090
v -1.392824 3.551167 1.025934
v -1.308395 3.935029 0.532875
v -1.663286 3.316845 0.438923
v -1.748719 2.797537 0.902291
v -1.769066 2.478178 0.375872
v -0.931446 4.092193 1.136473
v -1.193639 4.325683 0.013642
v -1.342673 2.089672 0.868968
v -1.537430 2.304160 -0.103120
v -1.024287 2.468726 -0.974362
v -1.060985 4.443972 -0.992651
v -0.000000 4.708258 -1.394562
v -0.000000 2.442362 -1.376343
v 1.024287 2.468727 -0.974362
v 1.537492 2.304243 -0.103173
v 1.060985 4.443972 -0.992651
v 1.193639 4.325683 0.013642
v 1.349013 2.091474 0.866433
v 0.931446 4.092193 1.136473
v -2.016130 -0.288943 0.625302
v -0.828681 -0.224094 -1.861336
v 1.925856 -0.286333 -0.747498
v 0.828681 -0.224094 -1.861337
v -1.925856 -0.286333 -0.747498
v 2.022602 -0.289202 0.619298
v 0.000000 2.172652 -1.225311
v 1.209189 0.912900 -1.139639
v 1.726166 0.850982 -0.033290
v 1.402122 0.844145 0.992462
v -0.888542 2.154398 -0.871431
v -1.342022 2.085615 -0.037916
v -0.923220 1.975819 0.886045
v 0.573314 1.919339 1.195208
v -0.505969 2.040618 1.119259
v -0.398668 -0.176736 1.877448
v 0.210996 0.903268 1.463773
v 1.489918 -0.241344 1.455615
v 0.164223 2.102352 1.123458
v 0.234539 2.040627 1.186331
v -1.346924 -0.237242 1.527145
v -0.156562 1.966182 1.203467
v 0.787383 -0.179235 1.733364
v 0.638152 2.069803 1.065203
v 0.798382 0.848156 1.384809
v -0.000000 0.942619 -1.639163
v 0.888542 2.154398 -0.871431
v 1.342001 2.085716 -0.038505
v 0.970376 1.986911 0.862926
v -1.209189 0.912900 -1.139639
v -1.726173 0.851016 -0.032763
v -1.353779 0.839691 1.019413
v 0.310666 0.847758 1.594579
v -0.040122 2.011709 1.131499
v -0.534296 0.824037 1.490177
v 0.419701 2.017008 1.118579
v 0.816046 1.662444 1.116006
v -0.675929 1.636843 1.176689
v 0.279073 1.660520 1.220978
v 0.118752 1.593096 1.326120
v -1.337648 1.693639 0.487073
v -1.317268 1.757805 -0.531643
v -0.524608 1.805766 -1.233044
v 1.344448 1.694734 0.481190
v 1.317268 1.757805 -0.531643
v 0.524608 1.805766 -1.233044
v 1.369602 2.409266 -0.572862
v 1.500686 2.192983 0.384215
v -0.550812 2.461444 -1.263137
v 0.433651 4.841891 0.644045
v -0.433650 4.841891 0.644045
v -1.226209 4.373226 -0.530989
v 1.078238 4.226601 0.575262
v 1.226209 4.373225 -0.530989
v -0.616567 4.607787 -1.291580
v -1.369602 2.409266 -0.572862
v 0.550811 2.461444 -1.263137
v -0.539046 5.017992 -0.515722
v 0.539046 5.017992 -0.515722
v 0.616567 4.607787 -1.291580
v -1.499469 2.192518 0.384744
v -0.682302 3.866495 -1.593162
v -0.678451 3.104681 -1.569882
v 1.498465 3.647449 0.485539
v 1.795410 2.903992 0.399252
v 0.682301 3.866495 -1.593162
v 0.678450 3.104681 -1.569882
v -1.482937 3.753547 -0.628344
v -1.594771 3.086368 -0.662987
v 1.482937 3.753547 -0.628344
v 1.594771 3.086368 -0.662987
v -1.498465 3.647449 0.485539
v -1.795409 2.903993 0.399252
v -1.078238 4.226601 0.575262
v 0.655387 0.935182 -1.502371
v 1.580546 0.878998 -0.622926
v 1.637858 0.842048 0.538088
v -0.655387 0.935182 -1.502371
v -1.580546 0.878998 -0.622926
v -1.631263 0.841575 0.544067
v -0.104181 0.822288 1.568131
v 0.182117 2.014604 1.132636
v -0.966705 0.833207 1.325686
v 0.677593 1.995393 1.064398
v 1.108144 0.846220 1.259997
v -0.541424 1.966971 1.120568
v 0.498856 0.860566 1.442473
v 0.219082 1.944513 1.215201
v -1.222514 2.028914 0.460812
v -1.207425 2.127610 -0.500985
v -0.472186 2.168451 -1.127156
v 1.229303 2.031060 0.455123
v 1.207425 2.127610 -0.500985
v 0.472186 2.168451 -1.127156
v -0.852975 2.113954 0.920797
v -0.570315 4.259565 1.147614
v -0.823174 2.326643 -0.798640
v -0.824668 4.589987 -0.822117
v 0.895708 2.124191 0.902115
v 0.570315 4.259565 1.147614
v 0.823174 2.326643 -0.798640
v 0.824668 4.589987 -0.822117
v -0.000000 2.328768 -1.128017
v -0.000000 4.877357 -0.979251
v 0.000000 4.613100 1.230268
v -1.251518 2.245553 -0.046051
v -0.805657 4.559024 0.017837
v 1.251518 2.245553 -0.046051
v 0.805656 4.559023 0.017837
v 0.000000 5.009622 0.030319
v -1.064533 3.743305 1.049537
v -1.579729 2.433570 0.857815
v -1.464305 3.161068 0.938809
v -1.075939 2.841054 -1.005808
v -1.043822 4.064325 -1.028894
v -1.126658 3.457190 -1.105432
v 1.043822 4.064325 -1.028894
v 1.075939 2.841054 -1.005808
v 1.126657 3.457190 -1.105432
v 1.579729 2.433570 0.857815
v 1.064533 3.743305 1.049537
v 1.464305 3.161068 0.938809
v -0.000000 4.257882 -1.511898
v -0.000000 2.806854 -1.460590
v -0.000000 3.492427 -1.693875
v 1.612870 2.651237 -0.100003
v 1.276892 3.939848 -0.038919
v 1.539199 3.350847 -0.095256
v -1.612870 2.651237 -0.100003
v -1.276892 3.939848 -0.038919
v -1.539200 3.350847 -0.095256
v -1.648341 -0.311003 1.089160
v -1.408931 -0.299929 -1.318545
v 1.692381 -0.312434 1.066788
v 1.408931 -0.299929 -1.318545
v 0.000000 -0.268094 -1.913236
v -1.949699 -0.352340 -0.027572
v 1.949699 -0.352340 -0.027572
v 0.479948 1.959093 1.051514
v 0.028401 0.074722 1.718529
v 0.005233 2.065989 0.998491
v 0.446586 0.095675 1.570402
v -0.109076 2.024170 1.054546
v -0.821321 -0.278844 1.641999
v 1.083006 -0.283747 1.525571
v 0.368381 2.084406 0.975574
v -0.000000 1.761163 -1.220303
v 0.887044 1.739374 -0.858898
v 1.318661 1.679565 -0.030619
v 0.992730 1.622856 0.814904
v -0.887044 1.739374 -0.858898
v -1.318661 1.679565 -0.030619
v -0.949810 1.614594 0.834318
v 0.502041 1.519548 1.203626
v 0.024810 1.617128 1.101268
v -0.250712 1.565138 1.171348
v 0.510198 1.614447 1.076633
v -1.163128 2.180045 0.410842
v -0.862258 4.599637 -0.491919
v -0.433449 2.331744 -1.037354
v 0.509857 4.768669 -0.931943
v 1.119821 2.297112 -0.457957
v 0.697969 4.434328 0.575982
v 0.433449 2.331744 -1.037354
v -0.290698 4.501774 1.202743
v -0.509857 4.768669 -0.931943
v 0.290698 4.501774 1.202743
v 0.000000 4.852514 0.622188
v -1.119821 2.297112 -0.457958
v -0.697969 4.434328 0.575982
v 1.167579 2.181111 0.408894
v 0.862258 4.599637 -0.491919
v 0.000000 5.018323 -0.521542
v -0.431178 4.866715 0.028492
v 0.431178 4.866715 0.028492
v -1.096655 3.760379 -1.085431
v -0.591851 4.186788 -1.374855
v -0.000000 3.875731 -1.650845
v -0.622555 3.483298 -1.516999
v -1.130480 3.148338 -1.079621
v -0.000000 3.131612 -1.618798
v -0.577618 2.831050 -1.330622
v 1.422019 3.658053 -0.070625
v 1.194987 3.853637 0.503024
v 1.275174 3.476652 0.995851
v 1.532643 3.262839 0.423043
v 1.628871 2.991183 -0.106877
v 1.609133 2.779707 0.886432
v 1.639832 2.538260 0.380105
v 0.591850 4.186787 -1.374854
v 1.096654 3.760379 -1.085431
v 0.622554 3.483298 -1.516999
v 1.130480 3.148338 -1.079621
v 0.577618 2.831050 -1.330622
v -1.422019 3.658053 -0.070625
v -1.254571 3.992930 -0.563982
v -1.423045 3.414664 -0.613102
v -1.628872 2.991183 -0.106877
v -1.427586 2.769020 -0.576009
v 1.254571 3.992930 -0.563982
v 1.423045 3.414664 -0.613102
v 1.427585 2.769020 -0.576009
v -1.275174 3.476652 0.995851
v -1.194987 3.853637 0.503024
v -1.532643 3.262839 0.423043
v -1.609133 2.779707 0.886432
v -1.639832 2.538260 0.380105
v -0.829339 4.000399 1.097338
v -1.081633 4.238636 -0.006649
v -1.279582 2.221260 0.870007
v -1.440748 2.406382 -0.073860
v -0.947265 2.552594 -0.894343
v -0.955932 4.365659 -0.939621
v -0.000000 4.608129 -1.299403
v -0.000000 2.531585 -1.273041
v 0.947265 2.552594 -0.894343
v 1.440748 2.406382 -0.073860
v 0.955931 4.365659 -0.939621
v 1.081633 4.238636 -0.006649
v 1.284924 2.222540 0.867672
v 0.829339 4.000399 1.097338
v -1.887971 -0.339093 0.592024
v -0.772633 -0.276307 -1.751233
v 1.800375 -0.333065 -0.703471
v 0.772633 -0.276307 -1.751233
v -1.800375 -0.333065 -0.703471
v 1.893476 -0.339272 0.589227
v -0.000000 2.163659 -1.095554
v 1.111731 0.862901 -1.056275
v 1.591894 0.804252 -0.029218
v 1.293759 0.791052 0.923101
v -0.792122 2.147987 -0.776337
v -1.200486 2.090361 -0.033324
v -0.821373 1.993585 0.797036
v 0.564423 1.869043 1.073331
v -0.463237 2.057536 0.996218
v -0.369061 -0.230643 1.759598
v 0.195274 0.853043 1.342455
v 1.408194 -0.294031 1.360188
v 0.159042 2.082067 0.994790
v 0.228919 1.994763 1.062931
v -1.270889 -0.290020 1.427876
v -0.139677 1.924493 1.079774
v 0.752592 -0.229984 1.615610
v 0.597140 2.089379 0.941978
v 0.756196 0.799247 1.268488
v 0.000000 0.889677 -1.517891
v 0.792122 2.147986 -0.776337
v 1.200486 2.090361 -0.033324
v 0.864112 2.003558 0.778198
v -1.111731 0.862901 -1.056275
v -1.591894 0.804252 -0.029218
v -1.250367 0.786914 0.943786
v 0.320849 0.792776 1.474382
v -0.040632 1.981561 1.004264
v -0.495800 0.772987 1.373500
v 0.398884 1.983324 0.993490
v 0.750459 1.614169 1.008974
v -0.616089 1.588385 1.066922
v 0.268196 1.615895 1.097518
v 0.124234 1.542354 1.204218
v -1.213455 1.645728 0.441011
v -1.194165 1.712476 -0.481275
v -0.470013 1.755787 -1.121524
v 1.218820 1.646761 0.438584
v 1.194165 1.712476 -0.481275
v 0.470013 1.755787 -1.121524
v 1.275994 2.497753 -0.514568
v 1.418735 2.312582 0.391618
v -0.503026 2.547827 -1.167537
v 0.365260 4.719880 0.607782
v -0.365260 4.719880 0.607782
v -1.107970 4.292783 -0.522662
v 0.973008 4.136265 0.540703
v 1.107970 4.292783 -0.522662
v -0.555902 4.517240 -1.205631
v -1.275995 2.497753 -0.514568
v 0.503026 2.547827 -1.167537
v -0.479082 4.885143 -0.507722
v 0.479082 4.885143 -0.507722
v 0.555902 4.517240 -1.205631
v -1.417845 2.312369 0.392007
v -0.613651 3.834464 -1.483024
v -0.615496 3.146569 -1.459469
v 1.376535 3.577376 0.462205
v 1.655013 2.885673 0.392431
v 0.613651 3.834464 -1.483024
v 0.615495 3.146569 -1.459469
v -1.352599 3.708800 -0.596178
v -1.465942 3.089449 -0.608923
v 1.352599 3.708800 -0.596178
v 1.465942 3.089449 -0.608923
v -1.376535 3.577376 0.462205
v -1.655013 2.885673 0.392431
v -0.973008 4.136265 0.540703
v 0.600046 0.882998 -1.391956
v 1.456110 0.832063 -0.576633
v 1.510159 0.791904 0.503346
v -0.600046 0.882999 -1.391956
v -1.456109 0.832063 -0.576633
v -1.504735 0.791387 0.505931
v -0.085189 0.768903 1.448271
v 0.176545 1.983245 1.005733
v -0.897394 0.781476 1.221944
v 0.624051 1.985667 0.944344
v 1.033000 0.794588 1.159691
v -0.490146 1.954628 0.999872
v 0.475048 0.810952 1.322070
v 0.215821 1.896820 1.092273
v -1.091113 2.042608 0.413691
v -1.081025 2.125561 -0.442257
v -0.415791 2.160042 -1.008128
v 1.096456 2.043855 0.411337
v 1.081025 2.125561 -0.442257
v 0.415791 2.160042 -1.008128
vt 0.385941 0.500000
vt 0.408974 0.500003
vt 0.410957 0.562505
vt 0.386606 0.562500
vt 0.438912 0.500026
vt 0.442150 0.562543
vt 0.443206 0.625048
vt 0.411629 0.625006
vt 0.386833 0.625000
vt 0.410467 0.687504
vt 0.385595 0.687066
vt 0.442035 0.687531
vt 0.440027 0.750000
vt 0.407513 0.750000
vt 0.375000 0.750000
vt 0.385941 0.250000
vt 0.408974 0.249997
vt 0.406470 0.312499
vt 0.385122 0.312500
vt 0.438912 0.249974
vt 0.434450 0.312488
vt 0.432090 0.375000
vt 0.405194 0.375000
vt 0.384708 0.375000
vt 0.634326 0.625000
vt 0.688666 0.625000
vt 0.688478 0.687500
vt 0.633627 0.687500
vt 0.750000 0.625000
vt 0.750000 0.687500
vt 0.750000 0.750000
vt 0.687500 0.750000
vt 0.625000 0.750000
vt 0.812500 0.625000
vt 0.812500 0.687500
vt 0.875000 0.625000
vt 0.875000 0.687500
vt 0.875000 0.750000
vt 0.812500 0.750000
vt 0.558179 0.124952
vt 0.590756 0.124994
vt 0.590648 0.187495
vt 0.557902 0.187457
vt 0.625000 0.125000
vt 0.625000 0.187500
vt 0.625000 0.250000
vt 0.588412 0.249997
vt 0.554175 0.249974
vt 0.558179 0.625048
vt 0.591922 0.625006
vt 0.592007 0.687504
vt 0.558583 0.687531
vt 0.591526 0.750000
vt 0.558052 0.750000
vt 0.554175 0.500026
vt 0.588608 0.500003
vt 0.591627 0.562505
vt 0.557902 0.562543
vt 0.625000 0.500000
vt 0.633560 0.562500
vt 0.582840 0.312499
vt 0.545100 0.312488
vt 0.625000 0.312500
vt 0.625000 0.375000
vt 0.579397 0.375000
vt 0.539515 0.375000
vt 0.386833 0.125000
vt 0.411629 0.124994
vt 0.410957 0.187495
vt 0.386606 0.187500
vt 0.443206 0.124952
vt 0.442150 0.187457
vt 0.406470 0.437501
vt 0.385122 0.437500
vt 0.434450 0.437512
vt 0.750000 0.500000
vt 0.812500 0.500000
vt 0.812500 0.562500
vt 0.750000 0.562500
vt 0.875000 0.500000
vt 0.875000 0.562500
vt 0.687500 0.500000
vt 0.688478 0.562500
vt 0.582839 0.437502
vt 0.545100 0.437512
vt 0.625000 0.437500
vt 0.375000 0.000000
vt 0.407513 0.000000
vt 0.410467 0.062496
vt 0.385595 0.062934
vt 0.440027 0.000000
vt 0.442035 0.062469
vt 0.514675 0.312466
vt 0.523857 0.249924
vt 0.509084 0.375000
vt 0.483882 0.375000
vt 0.488342 0.312452
vt 0.495877 0.249895
vt 0.462040 0.312466
vt 0.468051 0.249924
vt 0.458668 0.375000
vt 0.529018 0.687588
vt 0.528412 0.625137
vt 0.529990 0.750000
vt 0.501927 0.750000
vt 0.500842 0.687622
vt 0.500494 0.625191
vt 0.472244 0.687588
vt 0.472806 0.625137
vt 0.470977 0.750000
vt 0.514675 0.437534
vt 0.523857 0.500076
vt 0.495877 0.500106
vt 0.488342 0.437548
vt 0.462040 0.437534
vt 0.468051 0.500076
vt 0.527865 0.187378
vt 0.528412 0.124863
vt 0.499642 0.187330
vt 0.500494 0.124809
vt 0.471723 0.187378
vt 0.472806 0.124863
vt 0.527865 0.562622
vt 0.499642 0.562670
vt 0.471723 0.562622
vt 0.558052 0.000000
vt 0.558583 0.062469
vt 0.529018 0.062412
vt 0.529990 0.000000
vt 0.500842 0.062378
vt 0.501927 0.000000
vt 0.472244 0.062412
vt 0.470977 0.000000
vt 0.591526 0.000000
vt 0.591030 0.062496
vt 0.625000 0.000000
vt 0.625000 0.062500
vt 0.375000 0.375000
vt 0.375000 0.437500
vt 0.375000 0.437500
vt 0.375000 0.375000
vt 0.375000 0.500000
vt 0.375000 0.500000
vt 0.375000 0.500000
vt 0.375000 0.437500
vt 0.375000 0.375000
vt 0.375000 0.562500
vt 0.375000 0.562500
vt 0.375000 0.625000
vt 0.375000 0.625000
vt 0.375000 0.625000
vt 0.375000 0.562500
vt 0.375000 0.687500
vt 0.375000 0.687500
vt 0.375000 0.750000
vt 0.375000 0.750000
vt 0.375000 0.750000
vt 0.375000 0.687500
vt 0.375000 0.250000
vt 0.375000 0.312500
vt 0.375000 0.312500
vt 0.375000 0.250000
vt 0.375000 0.312500
vt 0.375000 0.250000
vt 0.375000 0.125000
vt 0.375000 0.187500
vt 0.375000 0.187500
vt 0.375000 0.125000
vt 0.375000 0.187500
vt 0.375000 0.125000
vt 0.375000 0.000000
vt 0.375000 0.062500
vt 0.375000 0.062500
vt 0.375000 0.000000
vt 0.375000 0.062500
vt 0.375000 0.000000
vt 0.375000 0.000000
vt 0.375000 0.000000
vt 0.375000 0.000000
vt 0.375000 0.000000
vt 0.375000 0.000000
vt 0.375000 0.000000
vt 0.375000 0.000000
vt 0.375000 0.000000
vt 0.375000 0.000000
vt 0.375000 0.750000
vt 0.375000 0.750000
vt 0.375000 0.750000
vt 0.375000 0.750000
vt 0.375000 0.750000
vt 0.375000 0.750000
vt 0.375000 0.750000
vt 0.375000 0.750000
vt 0.375000 0.750000
vt 0.375000 0.000000
vt 0.375000 0.000434
vt 0.375000 0.000000
vt 0.375241 0.732639
vt 0.375000 0.748264
vt 0.375000 0.749566
vt 0.375000 0.750000
vt 0.375000 0.750000
vt 0.375000 0.750000
vt 0.375000 0.750000
vt 0.375000 0.750000
vt 0.375241 0.017361
vt 0.375000 0.001736
vt 0.375000 0.000000
vt 0.375000 0.000000
vt 0.375000 0.000000
vt 0.375000 0.750000
vt 0.375000 0.750000
vt 0.375000 0.750000
vt 0.375000 0.750000
vt 0.375000 0.000000
vt 0.375000 0.000000
vt 0.375000 0.000000
vt 0.375000 0.000000
vt 0.376211 0.064236
vt 0.376479 0.125000
vt 0.376451 0.187500
vt 0.376368 0.250000
vt 0.376265 0.312500
vt 0.376214 0.375000
vt 0.376211 0.685764
vt 0.376479 0.625000
vt 0.376451 0.562500
vt 0.376368 0.500000
vt 0.376265 0.437500
vt 0.385941 0.500000
vt 0.386606 0.562500
vt 0.410957 0.562505
vt 0.408974 0.500003
vt 0.442150 0.562543
vt 0.438912 0.500026
vt 0.411629 0.625006
vt 0.443206 0.625048
vt 0.386833 0.625000
vt 0.385595 0.687066
vt 0.410467 0.687504
vt 0.442035 0.687531
vt 0.407513 0.750000
vt 0.440027 0.750000
vt 0.375000 0.750000
vt 0.385941 0.250000
vt 0.385122 0.312500
vt 0.406470 0.312499
vt 0.408974 0.249997
vt 0.434450 0.312488
vt 0.438912 0.249974
vt 0.405194 0.375000
vt 0.432090 0.375000
vt 0.384708 0.375000
vt 0.634326 0.625000
vt 0.633627 0.687500
vt 0.688478 0.687500
vt 0.688666 0.625000
vt 0.750000 0.687500
vt 0.750000 0.625000
vt 0.687500 0.750000
vt 0.750000 0.750000
vt 0.625000 0.750000
vt 0.812500 0.687500
vt 0.812500 0.625000
vt 0.875000 0.687500
vt 0.875000 0.625000
vt 0.812500 0.750000
vt 0.875000 0.750000
vt 0.558179 0.124952
vt 0.557902 0.187457
vt 0.590648 0.187495
vt 0.590756 0.124994
vt 0.625000 0.187500
vt 0.625000 0.125000
vt 0.588412 0.249997
vt 0.625000 0.250000
vt 0.554175 0.249974
vt 0.558179 0.625048
vt 0.558583 0.687531
vt 0.592007 0.687504
vt 0.591922 0.625006
vt 0.591526 0.750000
vt 0.558052 0.750000
vt 0.554175 0.500026
vt 0.557902 0.562543
vt 0.591627 0.562505
vt 0.588608 0.500003
vt 0.633560 0.562500
vt 0.625000 0.500000
vt 0.545100 0.312488
vt 0.582840 0.312499
vt 0.625000 0.312500
vt 0.579397 0.375000
vt 0.625000 0.375000
vt 0.539515 0.375000
vt 0.386833 0.125000
vt 0.386606 0.187500
vt 0.410957 0.187495
vt 0.411629 0.124994
vt 0.442150 0.187457
vt 0.443206 0.124952
vt 0.385122 0.437500
vt 0.406470 0.437501
vt 0.434450 0.437512
vt 0.750000 0.500000
vt 0.750000 0.562500
vt 0.812500 0.562500
vt 0.812500 0.500000
vt 0.875000 0.562500
vt 0.875000 0.500000
vt 0.688478 0.562500
vt 0.687500 0.500000
vt 0.545100 0.437512
vt 0.582839 0.437502
vt 0.625000 0.437500
vt 0.375000 0.000000
vt 0.385595 0.062934
vt 0.410467 0.062496
vt 0.407513 0.000000
vt 0.442035 0.062469
vt 0.440027 0.000000
vt 0.523857 0.249924
vt 0.514675 0.312466
vt 0.509084 0.375000
vt 0.488342 0.312452
vt 0.483882 0.375000
vt 0.495877 0.249895
vt 0.468051 0.249924
vt 0.462040 0.312466
vt 0.458668 0.375000
vt 0.528412 0.625137
vt 0.529018 0.687588
vt 0.529990 0.750000
vt 0.500842 0.687622
vt 0.501927 0.750000
vt 0.500494 0.625191
vt 0.472806 0.625137
vt 0.472244 0.687588
vt 0.470977 0.750000
vt 0.514675 0.437534
vt 0.523857 0.500076
vt 0.488342 0.437548
vt 0.495877 0.500106
vt 0.462040 0.437534
vt 0.468051 0.500076
vt 0.528412 0.124863
vt 0.527865 0.187378
vt 0.499642 0.187330
vt 0.500494 0.124809
vt 0.472806 0.124863
vt 0.471723 0.187378
vt 0.527865 0.562622
vt 0.499642 0.562670
vt 0.471723 0.562622
vt 0.558052 0.000000
vt 0.529990 0.000000
vt 0.529018 0.062412
vt 0.558583 0.062469
vt 0.500842 0.062378
vt 0.501927 0.000000
vt 0.470977 0.000000
vt 0.472244 0.062412
vt 0.591030 0.062496
vt 0.591526 0.000000
vt 0.625000 0.062500
vt 0.625000 0.000000
vt 0.375000 0.375000
vt 0.375000 0.375000
vt 0.375000 0.437500
vt 0.375000 0.437500
vt 0.375000 0.500000
vt 0.375000 0.500000
vt 0.375000 0.437500
vt 0.375000 0.500000
vt 0.375000 0.375000
vt 0.375000 0.562500
vt 0.375000 0.562500
vt 0.375000 0.625000
vt 0.375000 0.625000
vt 0.375000 0.562500
vt 0.375000 0.625000
vt 0.375000 0.687500
vt 0.375000 0.687500
vt 0.375000 0.750000
vt 0.375000 0.750000
vt 0.375000 0.687500
vt 0.375000 0.750000
vt 0.375000 0.250000
vt 0.375000 0.250000
vt 0.375000 0.312500
vt 0.375000 0.312500
vt 0.375000 0.312500
vt 0.375000 0.250000
vt 0.375000 0.125000
vt 0.375000 0.125000
vt 0.375000 0.187500
vt 0.375000 0.187500
vt 0.375000 0.187500
vt 0.375000 0.125000
vt 0.375000 0.000000
vt 0.375000 0.000000
vt 0.375000 0.062500
vt 0.375000 0.062500
vt 0.375000 0.062500
vt 0.375000 0.000000
vt 0.375000 0.000000
vt 0.375000 0.000000
vt 0.375000 0.000000
vt 0.375000 0.000000
vt 0.375000 0.000000
vt 0.375000 0.000000
vt 0.375000 0.000000
vt 0.375000 0.000000
vt 0.375000 0.000000
vt 0.375000 0.750000
vt 0.375000 0.750000
vt 0.375000 0.750000
vt 0.375000 0.750000
vt 0.375000 0.750000
vt 0.375000 0.750000
vt 0.375000 0.750000
vt 0.375000 0.750000
vt 0.375000 0.750000
vt 0.375000 0.000434
vt 0.375000 0.000000
vt 0.375000 0.000000
vt 0.375000 0.749566
vt 0.375000 0.748264
vt 0.375241 0.732639
vt 0.375000 0.750000
vt 0.375000 0.750000
vt 0.375000 0.750000
vt 0.375000 0.750000
vt 0.375000 0.750000
vt 0.375000 0.000000
vt 0.375000 0.001736
vt 0.375241 0.017361
vt 0.375000 0.000000
vt 0.375000 0.000000
vt 0.375000 0.750000
vt 0.375000 0.750000
vt 0.375000 0.750000
vt 0.375000 0.750000
vt 0.375000 0.000000
vt 0.375000 0.000000
vt 0.375000 0.000000
vt 0.375000 0.000000
vt 0.376211 0.064236
vt 0.376479 0.125000
vt 0.376451 0.187500
vt 0.376368 0.250000
vt 0.376265 0.312500
vt 0.376214 0.375000
vt 0.376479 0.625000
vt 0.376211 0.685764
vt 0.376368 0.500000
vt 0.376451 0.562500
vt 0.376265 0.437500
vn 0.5701 -0.4185 -0.7070
vn 0.5308 -0.5400 -0.6532
vn 0.6566 -0.5784 -0.4841
vn 0.7254 -0.4820 -0.4914
vn 0.6166 -0.3832 -0.6877
vn 0.7995 -0.3311 -0.5011
vn 0.9097 -0.3336 -0.2472
vn 0.6921 -0.6766 -0.2515
vn 0.7770 -0.6002 -0.1900
vn 0.5928 -0.8024 -0.0687
vn 0.6708 -0.7376 0.0769
vn 0.9175 -0.3962 -0.0337
vn 0.6592 -0.4080 0.6316
vn 0.3987 -0.6447 0.6522
vn 0.3706 -0.1885 0.9094
vn -0.5701 -0.4185 -0.7070
vn -0.5308 -0.5400 -0.6532
vn -0.3238 -0.5495 -0.7702
vn -0.3374 -0.4067 -0.8490
vn -0.6166 -0.3832 -0.6877
vn -0.3676 -0.4482 -0.8149
vn 0.0000 -0.4810 -0.8767
vn 0.0000 -0.5636 -0.8260
vn 0.0000 -0.4098 -0.9122
vn 0.6881 0.6999 0.1913
vn 0.4633 0.8702 0.1676
vn 0.4823 0.8196 0.3093
vn 0.6756 0.6707 0.3062
vn 0.0000 0.9885 0.1510
vn 0.0000 0.9476 0.3194
vn 0.0000 0.5176 0.8556
vn 0.3215 0.3857 0.8648
vn 0.4037 0.2598 0.8772
vn -0.4633 0.8702 0.1676
vn -0.4823 0.8196 0.3093
vn -0.6881 0.6999 0.1913
vn -0.6756 0.6707 0.3062
vn -0.4037 0.2598 0.8772
vn -0.3215 0.3857 0.8648
vn -0.8700 0.4817 0.1051
vn -0.7989 0.5770 0.1700
vn -0.8425 0.5337 -0.0729
vn -0.9002 0.3985 -0.1756
vn -0.6971 0.7168 -0.0154
vn -0.6525 0.6996 -0.2913
vn -0.7373 0.5136 -0.4389
vn -0.7682 0.3417 -0.5414
vn 0.8700 0.4817 0.1051
vn 0.7989 0.5770 0.1700
vn 0.7479 0.5966 0.2910
vn 0.8058 0.5364 0.2510
vn 0.4291 0.2250 0.8748
vn 0.4725 0.2036 0.8575
vn 0.7682 0.3417 -0.5414
vn 0.7373 0.5136 -0.4389
vn 0.8425 0.5337 -0.0729
vn 0.9002 0.3985 -0.1756
vn 0.6525 0.6996 -0.2913
vn 0.6971 0.7168 -0.0154
vn -0.4160 0.5833 -0.6977
vn -0.4446 0.3734 -0.8142
vn -0.4008 0.8166 -0.4153
vn 0.0000 0.8826 -0.4701
vn 0.0000 0.6414 -0.7672
vn 0.0000 0.4150 -0.9098
vn -0.7764 -0.6013 -0.1886
vn -0.6917 -0.6771 -0.2511
vn -0.6566 -0.5784 -0.4841
vn -0.7254 -0.4820 -0.4914
vn -0.9097 -0.3338 -0.2471
vn -0.7995 -0.3311 -0.5011
vn 0.3238 -0.5495 -0.7702
vn 0.3374 -0.4067 -0.8490
vn 0.3676 -0.4482 -0.8149
vn -0.4306 0.8997 -0.0713
vn 0.0000 0.9929 -0.1193
vn 0.4008 0.8166 -0.4153
vn 0.4306 0.8997 -0.0713
vn 0.4160 0.5833 -0.6977
vn 0.4446 0.3734 -0.8142
vn -0.3829 -0.1506 0.9115
vn -0.4024 -0.6421 0.6525
vn -0.5908 -0.8040 -0.0675
vn -0.6665 -0.7410 0.0820
vn -0.6595 -0.4090 0.6307
vn -0.9171 -0.3973 -0.0334
vn -0.4568 0.1982 -0.8672
vn -0.7676 0.2065 -0.6067
vn 0.0000 0.2173 -0.9761
vn 0.0000 -0.0381 -0.9993
vn -0.4497 -0.0198 -0.8929
vn -0.7504 0.0519 -0.6590
vn -0.4181 -0.2565 -0.8714
vn -0.7051 -0.1504 -0.6930
vn 0.0000 -0.2998 -0.9540
vn 0.8656 0.4610 0.1956
vn 0.9184 0.3949 0.0242
vn 0.5319 0.1778 0.8280
vn 0.5915 0.1345 0.7950
vn 0.9266 0.3522 0.1320
vn 0.9555 0.2885 -0.0615
vn 0.9925 0.1090 0.0562
vn 0.9843 0.0749 -0.1599
vn 0.6831 -0.0061 0.7303
vn 0.4568 0.1982 -0.8672
vn 0.7676 0.2065 -0.6067
vn 0.7504 0.0519 -0.6590
vn 0.4497 -0.0198 -0.8929
vn 0.4181 -0.2565 -0.8714
vn 0.7051 -0.1504 -0.6930
vn -0.9174 0.2933 -0.2689
vn -0.9184 0.3949 0.0242
vn -0.9178 0.1759 -0.3561
vn -0.9555 0.2885 -0.0615
vn -0.8956 -0.0212 -0.4443
vn -0.9843 0.0748 -0.1599
vn 0.9174 0.2933 -0.2689
vn 0.9178 0.1759 -0.3561
vn 0.8956 -0.0212 -0.4443
vn -0.4725 0.2036 0.8575
vn -0.8058 0.5364 0.2510
vn -0.8656 0.4610 0.1956
vn -0.5319 0.1778 0.8280
vn -0.9266 0.3522 0.1320
vn -0.5915 0.1345 0.7950
vn -0.9925 0.1089 0.0562
vn -0.6831 -0.0062 0.7303
vn -0.4291 0.2250 0.8748
vn -0.7479 0.5966 0.2910
vn 0.0000 0.3157 -0.9489
vn 0.3625 0.3141 -0.8775
vn 0.3690 0.3224 -0.8717
vn 0.0000 0.3231 -0.9464
vn 0.6455 0.3082 -0.6989
vn 0.6666 0.3170 -0.6747
vn 0.6461 -0.3897 -0.6563
vn 0.3561 -0.3763 -0.8554
vn 0.0000 -0.3710 -0.9286
vn 0.8597 0.3015 -0.4123
vn 0.8717 0.3056 -0.3832
vn 0.9509 0.3094 -0.0117
vn 0.9508 0.3080 -0.0347
vn 0.9021 -0.4291 -0.0463
vn 0.8307 -0.4178 -0.3679
vn 0.8769 0.3275 0.3518
vn 0.8991 0.3283 0.2895
vn 0.7076 0.3361 0.6215
vn 0.7489 0.3409 0.5683
vn 0.7536 -0.3738 0.5407
vn 0.8761 -0.4049 0.2617
vn -0.6455 0.3082 -0.6989
vn -0.3625 0.3141 -0.8775
vn -0.3690 0.3224 -0.8717
vn -0.6666 0.3170 -0.6747
vn -0.3561 -0.3763 -0.8554
vn -0.6461 -0.3897 -0.6563
vn -0.9508 0.3098 -0.0064
vn -0.8597 0.3016 -0.4122
vn -0.8717 0.3056 -0.3831
vn -0.9508 0.3083 -0.0299
vn -0.8307 -0.4178 -0.3679
vn -0.9027 -0.4283 -0.0421
vn -0.6681 0.3306 0.6666
vn -0.8655 0.3268 0.3795
vn -0.8898 0.3281 0.3172
vn -0.7123 0.3373 0.6155
vn -0.8697 -0.4016 0.2869
vn -0.7213 -0.3733 0.5834
vn -0.1728 0.2938 0.9401
vn -0.2558 0.3133 0.9145
vn -0.1255 0.3264 0.9369
vn -0.0371 0.3092 0.9503
vn -0.2692 -0.4045 0.8740
vn 0.0963 -0.4090 0.9074
vn 0.5006 -0.1572 0.8513
vn 0.6298 0.0529 0.7750
vn 0.6989 0.0902 0.7095
vn 0.1968 0.2748 0.9411
vn 0.1443 0.2117 0.9666
vn 0.0376 0.1878 0.9815
vn 0.0728 0.2717 0.9596
vn 0.0896 0.8024 0.5900
vn -0.0327 0.7960 0.6045
vn -0.4256 0.7134 0.5567
vn -0.7716 0.2618 0.5798
vn -0.6688 0.0660 0.7405
vn -0.4667 0.3222 0.8236
vn -0.4046 0.3087 0.8608
vn -0.4928 -0.3792 0.7832
vn 0.7377 -0.1701 0.6533
vn 0.3575 -0.0076 0.9339
vn 0.4460 0.3095 0.8398
vn 0.2253 0.5685 0.7912
vn 0.5080 0.3229 0.7986
vn 0.5316 -0.3782 0.7578
vn 0.2816 0.3005 0.9112
vn 0.2743 -0.4209 0.8646
vn -0.7012 -0.1784 0.6903
vn -0.3424 0.0194 0.9394
vn -0.1927 0.5898 0.7842
vn -0.1160 0.2620 0.9581
vn -0.0194 0.8399 0.5424
vn 0.1574 0.3030 0.9399
vn -0.1467 -0.4049 0.9025
vn -0.6060 0.0637 0.7929
vn -0.5087 -0.1030 0.8548
vn 0.0203 0.2897 0.9569
vn 0.0948 0.8835 0.4587
vn 0.7935 0.3954 0.4627
vn 0.4061 0.8449 0.3482
vn -0.9026 -0.1409 0.4067
vn -0.9998 -0.0161 -0.0147
vn -0.8792 0.0161 -0.4762
vn -0.6490 0.0402 -0.7598
vn -0.3676 0.0511 -0.9286
vn 0.0000 0.0541 -0.9985
vn 0.9161 -0.1313 0.3789
vn 0.9996 -0.0163 -0.0210
vn 0.8791 0.0161 -0.4763
vn 0.6490 0.0402 -0.7598
vn 0.3676 0.0511 -0.9286
vn -0.5746 0.4069 0.7101
vn -0.7335 0.4723 0.4888
vn -0.6569 0.5777 0.4844
vn -0.5313 0.5378 0.6546
vn -0.7986 0.3316 0.5023
vn -0.6157 0.3852 0.6874
vn -0.6911 0.6790 0.2476
vn -0.9093 0.3337 0.2487
vn -0.7830 0.5990 0.1675
vn -0.6740 0.7307 -0.1084
vn -0.5918 0.8036 0.0632
vn -0.9167 0.3980 0.0360
vn -0.2535 0.6741 0.6938
vn -0.5559 0.2756 0.7843
vn -0.2959 0.9463 0.1302
vn 0.5746 0.4069 0.7101
vn 0.3406 0.3947 0.8534
vn 0.3255 0.5462 0.7718
vn 0.5313 0.5378 0.6546
vn 0.3685 0.4507 0.8131
vn 0.6157 0.3852 0.6874
vn 0.0000 0.5601 0.8284
vn 0.0000 0.4842 0.8750
vn 0.0000 0.3980 0.9174
vn -0.6893 -0.6983 -0.1931
vn -0.6773 -0.6688 -0.3067
vn -0.4899 -0.8152 -0.3090
vn -0.4687 -0.8672 -0.1682
vn -0.0000 -0.9474 -0.3200
vn 0.0000 -0.9885 -0.1511
vn -0.3875 -0.7837 0.4855
vn -0.0000 -0.8428 0.5382
vn -0.5572 -0.6966 0.4520
vn 0.4899 -0.8152 -0.3090
vn 0.4687 -0.8672 -0.1682
vn 0.6773 -0.6688 -0.3067
vn 0.6893 -0.6983 -0.1931
vn 0.3875 -0.7837 0.4855
vn 0.5572 -0.6966 0.4520
vn 0.8695 -0.4824 -0.1065
vn 0.9008 -0.3981 0.1737
vn 0.8432 -0.5330 0.0707
vn 0.7986 -0.5769 -0.1716
vn 0.6981 -0.7159 0.0118
vn 0.7391 -0.5118 0.4379
vn 0.6536 -0.6993 0.2895
vn 0.7698 -0.3391 0.5408
vn -0.8695 -0.4824 -0.1065
vn -0.8051 -0.5371 -0.2516
vn -0.7477 -0.5965 -0.2916
vn -0.7986 -0.5769 -0.1716
vn -0.6050 -0.6493 0.4609
vn -0.6274 -0.6045 0.4909
vn -0.7698 -0.3391 0.5408
vn -0.9008 -0.3981 0.1737
vn -0.8432 -0.5330 0.0707
vn -0.7391 -0.5118 0.4379
vn -0.6981 -0.7159 0.0118
vn -0.6536 -0.6993 0.2895
vn 0.4462 -0.3716 0.8142
vn 0.4178 -0.5814 0.6981
vn 0.4033 -0.8162 0.4137
vn -0.0000 -0.6405 0.7679
vn -0.0000 -0.8829 0.4696
vn -0.0000 -0.4151 0.9098
vn 0.7823 0.6006 0.1655
vn 0.7335 0.4723 0.4888
vn 0.6569 0.5777 0.4844
vn 0.6907 0.6796 0.2471
vn 0.7986 0.3316 0.5023
vn 0.9092 0.3339 0.2486
vn -0.3406 0.3947 0.8534
vn -0.3255 0.5462 0.7718
vn -0.3685 0.4507 0.8131
vn 0.0000 -0.9930 0.1184
vn 0.4344 -0.8981 0.0693
vn -0.4344 -0.8981 0.0693
vn -0.4033 -0.8162 0.4137
vn -0.4462 -0.3716 0.8142
vn -0.4178 -0.5814 0.6981
vn 0.3099 0.9444 0.1099
vn 0.6658 0.7371 -0.1157
vn 0.5895 0.8054 0.0620
vn 0.2424 0.6862 0.6858
vn 0.9162 0.3990 0.0356
vn 0.5538 0.2791 0.7845
vn 0.7689 -0.2052 0.6055
vn 0.4591 -0.1980 0.8661
vn 0.0000 -0.2186 0.9758
vn 0.4522 0.0209 0.8917
vn -0.0000 0.0390 0.9992
vn 0.7516 -0.0514 0.6576
vn 0.7058 0.1508 0.6922
vn 0.4200 0.2591 0.8698
vn -0.0000 0.3033 0.9529
vn -0.9178 -0.3962 -0.0259
vn -0.8648 -0.4621 -0.1965
vn -0.6601 -0.5340 0.5282
vn -0.9250 -0.3557 -0.1336
vn -0.7059 -0.4159 0.5734
vn -0.9547 -0.2917 0.0590
vn -0.9838 -0.0829 0.1587
vn -0.9910 -0.1207 -0.0572
vn -0.7329 -0.1715 0.6584
vn -0.4591 -0.1980 0.8661
vn -0.7689 -0.2052 0.6055
vn -0.4522 0.0209 0.8917
vn -0.7516 -0.0514 0.6576
vn -0.4200 0.2591 0.8698
vn -0.7058 0.1508 0.6922
vn 0.9178 -0.3962 -0.0259
vn 0.9179 -0.2937 0.2670
vn 0.9182 -0.1777 0.3540
vn 0.9547 -0.2917 0.0590
vn 0.9838 -0.0829 0.1587
vn 0.8961 0.0178 0.4435
vn -0.9179 -0.2937 0.2670
vn -0.9182 -0.1777 0.3540
vn -0.8961 0.0178 0.4435
vn 0.6274 -0.6045 0.4909
vn 0.6601 -0.5340 0.5282
vn 0.8648 -0.4621 -0.1965
vn 0.8051 -0.5371 -0.2516
vn 0.9250 -0.3557 -0.1336
vn 0.7059 -0.4159 0.5734
vn 0.7330 -0.1714 0.6583
vn 0.9910 -0.1207 -0.0572
vn 0.7477 -0.5965 -0.2916
vn 0.6050 -0.6493 0.4609
vn -0.0000 -0.3100 0.9507
vn -0.0000 -0.3232 0.9463
vn -0.3697 -0.3225 0.8714
vn -0.3639 -0.3083 0.8789
vn -0.6668 -0.3171 0.6744
vn -0.6459 -0.3022 0.7011
vn -0.1498 -0.9442 0.2933
vn -0.2697 -0.9391 0.2131
vn -0.0000 -0.9480 0.3183
vn -0.8717 -0.3053 0.3832
vn -0.8606 -0.2942 0.4158
vn -0.9509 -0.3076 0.0340
vn -0.9542 -0.2989 0.0124
vn -0.3554 -0.9276 0.1147
vn -0.3804 -0.9248 0.0123
vn -0.8992 -0.3280 -0.2895
vn -0.8815 -0.3127 -0.3538
vn -0.7496 -0.3409 -0.5674
vn -0.7101 -0.3204 -0.6270
vn -0.3542 -0.9323 -0.0731
vn -0.2920 -0.9437 -0.1552
vn 0.6459 -0.3022 0.7011
vn 0.6668 -0.3171 0.6744
vn 0.3697 -0.3225 0.8714
vn 0.3639 -0.3083 0.8789
vn 0.1498 -0.9442 0.2933
vn 0.2697 -0.9391 0.2131
vn 0.9542 -0.2992 0.0076
vn 0.9510 -0.3079 0.0296
vn 0.8717 -0.3053 0.3832
vn 0.8606 -0.2942 0.4158
vn 0.3554 -0.9277 0.1147
vn 0.3784 -0.9256 0.0107
vn 0.6693 -0.3151 -0.6728
vn 0.7123 -0.3372 -0.6156
vn 0.8899 -0.3279 -0.3171
vn 0.8702 -0.3118 -0.3816
vn 0.3436 -0.9357 -0.0804
vn 0.2785 -0.9450 -0.1712
vn 0.1692 -0.2923 -0.9412
vn 0.0359 -0.3095 -0.9502
vn 0.1250 -0.3265 -0.9369
vn 0.2543 -0.3132 -0.9150
vn 0.3628 -0.8971 -0.2523
vn 0.1568 -0.9317 -0.3276
vn 0.7440 -0.4214 -0.5186
vn 0.6888 -0.6413 -0.3381
vn 0.6996 -0.3667 -0.6133
vn -0.1906 -0.2728 -0.9430
vn -0.0712 -0.2715 -0.9598
vn -0.0363 -0.1898 -0.9812
vn -0.1359 -0.2043 -0.9694
vn -0.0797 0.6201 -0.7804
vn -0.0732 0.6125 -0.7871
vn -0.7484 0.0036 -0.6632
vn -0.4295 0.5909 -0.6829
vn -0.7247 -0.3192 -0.6106
vn 0.3992 -0.2996 -0.8665
vn 0.4653 -0.3221 -0.8245
vn 0.2041 -0.9381 -0.2797
vn -0.4393 -0.2994 -0.8470
vn -0.3522 -0.0569 -0.9342
vn -0.7202 0.1070 -0.6855
vn -0.1304 0.8151 -0.5645
vn -0.2171 -0.9407 -0.2608
vn -0.5067 -0.3227 -0.7994
vn -0.2788 -0.3002 -0.9122
vn -0.1890 -0.9281 -0.3206
vn 0.1850 0.8075 -0.5601
vn 0.3369 -0.0726 -0.9387
vn 0.6879 0.1143 -0.7167
vn 0.1104 -0.2535 -0.9610
vn 0.0961 0.5441 -0.8335
vn -0.4558 -0.8568 -0.2410
vn -0.1565 -0.3031 -0.9400
vn -0.7705 -0.3700 -0.5191
vn -0.7515 -0.5540 -0.3584
vn 0.0408 0.4665 -0.8836
vn -0.0214 -0.2904 -0.9567
vn 0.7111 -0.0141 -0.7029
vn 0.2913 0.4356 -0.8517
vn 0.9164 0.0910 -0.3898
vn 0.9987 0.0318 0.0388
vn 0.8758 -0.0131 0.4825
vn 0.6487 -0.0405 0.7600
vn 0.3701 -0.0517 0.9275
vn -0.0000 -0.0546 0.9985
vn -0.9986 0.0311 0.0437
vn -0.9279 0.0850 -0.3630
vn -0.6487 -0.0405 0.7600
vn -0.8758 -0.0131 0.4825
vn -0.3701 -0.0517 0.9275
usemtl None
s 1
f 7/1/1 122/2/2 174/3/3 68/4/4
f 122/2/2 24/5/5 108/6/6 174/3/3
f 174/3/3 108/6/6 32/7/7 123/8/8
f 68/4/4 174/3/3 123/8/8 14/9/9
f 14/9/9 123/8/8 175/10/10 77/11/11
f 123/8/8 32/7/7 95/12/12 175/10/10
f 175/10/10 95/12/12 26/13/13 126/14/14
f 77/11/11 175/10/10 126/14/14 5/15/15
f 3/16/16 118/17/17 176/18/18 66/19/19
f 118/17/17 20/20/20 88/21/21 176/18/18
f 176/18/18 88/21/21 30/22/22 121/23/23
f 66/19/19 176/18/18 121/23/23 9/24/24
f 15/25/25 81/26/26 177/27/27 69/28/28
f 81/26/26 16/29/29 74/30/30 177/27/27
f 177/27/27 74/30/30 11/31/31 73/32/32
f 69/28/28 177/27/27 73/32/32 6/33/33
f 16/29/29 80/34/34 178/35/35 74/30/30
f 80/34/34 13/36/36 76/37/37 178/35/35
f 178/35/35 76/37/37 2/38/38 71/39/39
f 74/30/30 178/35/35 71/39/39 11/31/31
f 36/40/40 115/41/41 179/42/42 102/43/43
f 115/41/41 13/44/36 65/45/44 179/42/42
f 179/42/42 65/45/44 4/46/45 119/47/46
f 102/43/43 179/42/42 119/47/46 21/48/47
f 33/49/48 125/50/49 180/51/50 90/52/51
f 125/50/49 15/25/25 69/28/28 180/51/50
f 180/51/50 69/28/28 6/33/33 127/53/52
f 90/52/51 180/51/50 127/53/52 27/54/53
f 23/55/54 124/56/55 181/57/56 106/58/57
f 124/56/55 8/59/58 78/60/59 181/57/56
f 181/57/56 78/60/59 15/25/25 125/50/49
f 106/58/57 181/57/56 125/50/49 33/49/48
f 21/48/47 119/47/46 182/61/60 83/62/61
f 119/47/46 4/46/45 72/63/62 182/61/60
f 182/61/60 72/63/62 10/64/63 120/65/64
f 83/62/61 182/61/60 120/65/64 29/66/65
f 12/67/66 117/68/67 183/69/68 75/70/69
f 117/68/67 35/71/70 105/72/71 183/69/68
f 183/69/68 105/72/71 20/20/20 118/17/17
f 75/70/69 183/69/68 118/17/17 3/16/16
f 9/24/24 121/23/23 184/73/72 70/74/73
f 121/23/23 30/22/22 100/75/74 184/73/72
f 184/73/72 100/75/74 24/5/5 122/2/2
f 70/74/73 184/73/72 122/2/2 7/1/1
f 10/76/63 72/77/62 185/78/75 79/79/76
f 72/77/62 4/80/45 65/81/44 185/78/75
f 185/78/75 65/81/44 13/36/36 80/34/34
f 79/79/76 185/78/75 80/34/34 16/29/29
f 8/59/58 67/82/77 186/83/78 78/60/59
f 67/82/77 10/76/63 79/79/76 186/83/78
f 186/83/78 79/79/76 16/29/29 81/26/26
f 78/60/59 186/83/78 81/26/26 15/25/25
f 29/66/65 120/65/64 187/84/79 96/85/80
f 120/65/64 10/64/63 67/86/77 187/84/79
f 187/84/79 67/86/77 8/59/58 124/56/55
f 96/85/80 187/84/79 124/56/55 23/55/54
f 1/87/81 116/88/82 188/89/83 64/90/84
f 116/88/82 18/91/85 113/92/86 188/89/83
f 188/89/83 113/92/86 35/71/70 117/68/67
f 64/90/84 188/89/83 117/68/67 12/67/66
f 21/48/47 83/62/61 189/93/87 82/94/88
f 83/62/61 29/66/65 84/95/89 189/93/87
f 189/93/87 84/95/89 31/96/90 85/97/91
f 82/94/88 189/93/87 85/97/91 22/98/92
f 22/98/92 85/97/91 190/99/93 86/100/94
f 85/97/91 31/96/90 87/101/95 190/99/93
f 190/99/93 87/101/95 30/22/22 88/21/21
f 86/100/94 190/99/93 88/21/21 20/20/20
f 33/49/48 90/52/51 191/102/96 89/103/97
f 90/52/51 27/54/53 91/104/98 191/102/96
f 191/102/96 91/104/98 28/105/99 92/106/100
f 89/103/97 191/102/96 92/106/100 34/107/101
f 34/107/101 92/106/100 192/108/102 93/109/103
f 92/106/100 28/105/99 94/110/104 192/108/102
f 192/108/102 94/110/104 26/13/13 95/12/12
f 93/109/103 192/108/102 95/12/12 32/7/7
f 29/66/65 96/85/80 193/111/105 84/95/89
f 96/85/80 23/55/54 97/112/106 193/111/105
f 193/111/105 97/112/106 25/113/107 98/114/108
f 84/95/89 193/111/105 98/114/108 31/96/90
f 31/96/90 98/114/108 194/115/109 87/101/95
f 98/114/108 25/113/107 99/116/110 194/115/109
f 194/115/109 99/116/110 24/5/5 100/75/74
f 87/101/95 194/115/109 100/75/74 30/22/22
f 36/40/40 102/43/43 195/117/111 101/118/112
f 102/43/43 21/48/47 82/94/88 195/117/111
f 195/117/111 82/94/88 22/98/92 103/119/113
f 101/118/112 195/117/111 103/119/113 37/120/114
f 37/120/114 103/119/113 196/121/115 104/122/116
f 103/119/113 22/98/92 86/100/94 196/121/115
f 196/121/115 86/100/94 20/20/20 105/72/71
f 104/122/116 196/121/115 105/72/71 35/71/70
f 23/55/54 106/58/57 197/123/117 97/112/106
f 106/58/57 33/49/48 89/103/97 197/123/117
f 197/123/117 89/103/97 34/107/101 107/124/118
f 97/112/106 197/123/117 107/124/118 25/113/107
f 25/113/107 107/124/118 198/125/119 99/116/110
f 107/124/118 34/107/101 93/109/103 198/125/119
f 198/125/119 93/109/103 32/7/7 108/6/6
f 99/116/110 198/125/119 108/6/6 24/5/5
f 17/126/120 110/127/121 199/128/122 109/129/123
f 110/127/121 36/40/40 101/118/112 199/128/122
f 199/128/122 101/118/112 37/120/114 111/130/124
f 109/129/123 199/128/122 111/130/124 19/131/125
f 19/131/125 111/130/124 200/132/126 112/133/127
f 111/130/124 37/120/114 104/122/116 200/132/126
f 200/132/126 104/122/116 35/71/70 113/92/86
f 112/133/127 200/132/126 113/92/86 18/91/85
f 17/126/120 114/134/128 201/135/129 110/127/121
f 114/134/128 2/136/38 76/137/37 201/135/129
f 201/135/129 76/137/37 13/44/36 115/41/41
f 110/127/121 201/135/129 115/41/41 36/40/40
f 53/138/130 173/139/131 202/140/132 153/141/133
f 173/139/131 54/142/134 135/143/135 202/140/132
f 202/140/132 135/143/135 41/144/136 131/145/137
f 153/141/133 202/140/132 131/145/137 42/146/138
f 54/142/134 172/147/139 203/148/140 135/143/135
f 172/147/139 55/149/141 136/150/142 203/148/140
f 203/148/140 136/150/142 44/151/143 130/152/144
f 135/143/135 203/148/140 130/152/144 41/144/136
f 55/149/141 171/153/145 204/154/146 136/150/142
f 171/153/145 56/155/147 137/156/148 204/154/146
f 204/154/146 137/156/148 40/157/149 133/158/150
f 136/150/142 204/154/146 133/158/150 44/151/143
f 57/159/151 170/160/152 205/161/153 157/162/154
f 170/160/152 53/138/130 153/141/133 205/161/153
f 205/161/153 153/141/133 42/146/138 129/163/155
f 157/162/154 205/161/153 129/163/155 39/164/156
f 58/165/157 169/166/158 206/167/159 158/168/160
f 169/166/158 57/159/151 157/162/154 206/167/159
f 206/167/159 157/162/154 39/164/156 132/169/161
f 158/168/160 206/167/159 132/169/161 43/170/162
f 59/171/163 168/172/164 207/173/165 159/174/166
f 168/172/164 58/165/157 158/168/160 207/173/165
f 207/173/165 158/168/160 43/170/162 128/175/167
f 159/174/166 207/173/165 128/175/167 38/176/168
f 62/177/169 162/178/170 208/179/171 167/180/172
f 162/178/170 50/181/173 143/182/174 208/179/171
f 208/179/171 143/182/174 46/183/175 160/184/176
f 167/180/172 208/179/171 160/184/176 60/185/177
f 63/186/178 163/187/179 209/188/180 166/189/181
f 163/187/179 52/190/182 146/191/183 209/188/180
f 209/188/180 146/191/183 47/192/184 161/193/185
f 166/189/181 209/188/180 161/193/185 61/194/186
f 59/171/163 159/174/166 210/195/187 165/196/188
f 159/174/166 38/176/168 148/197/189 210/195/187
f 210/195/187 148/197/189 50/181/173 162/178/170
f 165/196/188 210/195/187 162/178/170 62/177/169
f 56/155/147 156/198/190 211/199/191 164/200/192
f 156/198/190 5/15/15 151/201/193 211/199/191
f 211/199/191 151/201/193 52/190/182 163/187/179
f 164/200/192 211/199/191 163/187/179 63/186/178
f 40/157/149 137/156/148 212/202/194 145/203/195
f 137/156/148 56/155/147 164/200/192 212/202/194
f 212/202/194 164/200/192 63/186/178 152/204/196
f 145/203/195 212/202/194 152/204/196 51/205/197
f 1/87/81 140/206/198 213/207/199 142/208/200
f 140/206/198 59/171/163 165/196/188 213/207/199
f 213/207/199 165/196/188 62/177/169 149/209/201
f 142/208/200 213/207/199 149/209/201 49/210/202
f 51/205/197 152/204/196 214/211/203 150/212/204
f 152/204/196 63/186/178 166/189/181 214/211/203
f 214/211/203 166/189/181 61/194/186 144/213/205
f 150/212/204 214/211/203 144/213/205 48/214/206
f 49/210/202 149/209/201 215/215/207 147/216/208
f 149/209/201 62/177/169 167/180/172 215/215/207
f 215/215/207 167/180/172 60/185/177 141/217/209
f 147/216/208 215/215/207 141/217/209 45/218/210
f 1/87/81 64/90/84 216/219/211 140/206/198
f 64/90/84 12/67/66 139/220/212 216/219/211
f 216/219/211 139/220/212 58/165/157 168/172/164
f 140/206/198 216/219/211 168/172/164 59/171/163
f 12/67/66 75/70/69 217/221/213 139/220/212
f 75/70/69 3/16/16 138/222/214 217/221/213
f 217/221/213 138/222/214 57/159/151 169/166/158
f 139/220/212 217/221/213 169/166/158 58/165/157
f 3/16/16 66/19/19 218/223/215 138/222/214
f 66/19/19 9/24/24 134/224/216 218/223/215
f 218/223/215 134/224/216 53/138/130 170/160/152
f 138/222/214 218/223/215 170/160/152 57/159/151
f 14/9/9 77/11/11 219/225/217 155/226/218
f 77/11/11 5/15/15 156/198/190 219/225/217
f 219/225/217 156/198/190 56/155/147 171/153/145
f 155/226/218 219/225/217 171/153/145 55/149/141
f 7/1/1 68/4/4 220/227/219 154/228/220
f 68/4/4 14/9/9 155/226/218 220/227/219
f 220/227/219 155/226/218 55/149/141 172/147/139
f 154/228/220 220/227/219 172/147/139 54/142/134
f 9/24/24 70/74/73 221/229/221 134/224/216
f 70/74/73 7/1/1 154/228/220 221/229/221
f 221/229/221 154/228/220 54/142/134 173/139/131
f 134/224/216 221/229/221 173/139/131 53/138/130
f 228/230/222 289/231/223 395/232/224 343/233/225
f 343/233/225 395/232/224 329/234/226 245/235/227
f 395/232/224 344/236/228 253/237/229 329/234/226
f 289/231/223 235/238/230 344/236/228 395/232/224
f 235/238/230 298/239/231 396/240/232 344/236/228
f 344/236/228 396/240/232 316/241/233 253/237/229
f 396/240/232 347/242/234 247/243/235 316/241/233
f 298/239/231 226/244/236 347/242/234 396/240/232
f 224/245/237 287/246/238 397/247/239 339/248/240
f 339/248/240 397/247/239 309/249/241 241/250/242
f 397/247/239 342/251/243 251/252/244 309/249/241
f 287/246/238 230/253/245 342/251/243 397/247/239
f 236/254/246 290/255/247 398/256/248 302/257/249
f 302/257/249 398/256/248 295/258/250 237/259/251
f 398/256/248 294/260/252 232/261/253 295/258/250
f 290/255/247 227/262/254 294/260/252 398/256/248
f 237/259/251 295/258/250 399/263/255 301/264/256
f 301/264/256 399/263/255 297/265/257 234/266/258
f 399/263/255 292/267/259 223/268/260 297/265/257
f 295/258/250 232/261/253 292/267/259 399/263/255
f 257/269/261 323/270/262 400/271/263 336/272/264
f 336/272/264 400/271/263 286/273/265 234/274/258
f 400/271/263 340/275/266 225/276/267 286/273/265
f 323/270/262 242/277/268 340/275/266 400/271/263
f 254/278/269 311/279/270 401/280/271 346/281/272
f 346/281/272 401/280/271 290/255/247 236/254/246
f 401/280/271 348/282/273 227/262/254 290/255/247
f 311/279/270 248/283/274 348/282/273 401/280/271
f 244/284/275 327/285/276 402/286/277 345/287/278
f 345/287/278 402/286/277 299/288/279 229/289/280
f 402/286/277 346/281/272 236/254/246 299/288/279
f 327/285/276 254/278/269 346/281/272 402/286/277
f 242/277/268 304/290/281 403/291/282 340/275/266
f 340/275/266 403/291/282 293/292/283 225/276/267
f 403/291/282 341/293/284 231/294/285 293/292/283
f 304/290/281 250/295/286 341/293/284 403/291/282
f 233/296/287 296/297/288 404/298/289 338/299/290
f 338/299/290 404/298/289 326/300/291 256/301/292
f 404/298/289 339/248/240 241/250/242 326/300/291
f 296/297/288 224/245/237 339/248/240 404/298/289
f 230/253/245 291/302/293 405/303/294 342/251/243
f 342/251/243 405/303/294 321/304/295 251/252/244
f 405/303/294 343/233/225 245/235/227 321/304/295
f 291/302/293 228/230/222 343/233/225 405/303/294
f 231/305/285 300/306/296 406/307/297 293/308/283
f 293/308/283 406/307/297 286/309/265 225/310/267
f 406/307/297 301/264/256 234/266/258 286/309/265
f 300/306/296 237/259/251 301/264/256 406/307/297
f 229/289/280 299/288/279 407/311/298 288/312/299
f 288/312/299 407/311/298 300/306/296 231/305/285
f 407/311/298 302/257/249 237/259/251 300/306/296
f 299/288/279 236/254/246 302/257/249 407/311/298
f 250/295/286 317/313/300 408/314/301 341/293/284
f 341/293/284 408/314/301 288/315/299 231/294/285
f 408/314/301 345/287/278 229/289/280 288/315/299
f 317/313/300 244/284/275 345/287/278 408/314/301
f 222/316/302 285/317/303 409/318/304 337/319/305
f 337/319/305 409/318/304 334/320/306 239/321/307
f 409/318/304 338/299/290 256/301/292 334/320/306
f 285/317/303 233/296/287 338/299/290 409/318/304
f 242/277/268 303/322/308 410/323/309 304/290/281
f 304/290/281 410/323/309 305/324/310 250/295/286
f 410/323/309 306/325/311 252/326/312 305/324/310
f 303/322/308 243/327/313 306/325/311 410/323/309
f 243/327/313 307/328/314 411/329/315 306/325/311
f 306/325/311 411/329/315 308/330/316 252/326/312
f 411/329/315 309/249/241 251/252/244 308/330/316
f 307/328/314 241/250/242 309/249/241 411/329/315
f 254/278/269 310/331/317 412/332/318 311/279/270
f 311/279/270 412/332/318 312/333/319 248/283/274
f 412/332/318 313/334/320 249/335/321 312/333/319
f 310/331/317 255/336/322 313/334/320 412/332/318
f 255/336/322 314/337/323 413/338/324 313/334/320
f 313/334/320 413/338/324 315/339/325 249/335/321
f 413/338/324 316/241/233 247/243/235 315/339/325
f 314/337/323 253/237/229 316/241/233 413/338/324
f 250/295/286 305/324/310 414/340/326 317/313/300
f 317/313/300 414/340/326 318/341/327 244/284/275
f 414/340/326 319/342/328 246/343/329 318/341/327
f 305/324/310 252/326/312 319/342/328 414/340/326
f 252/326/312 308/330/316 415/344/330 319/342/328
f 319/342/328 415/344/330 320/345/331 246/343/329
f 415/344/330 321/304/295 245/235/227 320/345/331
f 308/330/316 251/252/244 321/304/295 415/344/330
f 257/269/261 322/346/332 416/347/333 323/270/262
f 323/270/262 416/347/333 303/322/308 242/277/268
f 416/347/333 324/348/334 243/327/313 303/322/308
f 322/346/332 258/349/335 324/348/334 416/347/333
f 258/349/335 325/350/336 417/351/337 324/348/334
f 324/348/334 417/351/337 307/328/314 243/327/313
f 417/351/337 326/300/291 241/250/242 307/328/314
f 325/350/336 256/301/292 326/300/291 417/351/337
f 244/284/275 318/341/327 418/352/338 327/285/276
f 327/285/276 418/352/338 310/331/317 254/278/269
f 418/352/338 328/353/339 255/336/322 310/331/317
f 318/341/327 246/343/329 328/353/339 418/352/338
f 246/343/329 320/345/331 419/354/340 328/353/339
f 328/353/339 419/354/340 314/337/323 255/336/322
f 419/354/340 329/234/226 253/237/229 314/337/323
f 320/345/331 245/235/227 329/234/226 419/354/340
f 238/355/341 330/356/342 420/357/343 331/358/344
f 331/358/344 420/357/343 322/346/332 257/269/261
f 420/357/343 332/359/345 258/349/335 322/346/332
f 330/356/342 240/360/346 332/359/345 420/357/343
f 240/360/346 333/361/347 421/362/348 332/359/345
f 332/359/345 421/362/348 325/350/336 258/349/335
f 421/362/348 334/320/306 256/301/292 325/350/336
f 333/361/347 239/321/307 334/320/306 421/362/348
f 238/355/341 331/358/344 422/363/349 335/364/350
f 335/364/350 422/363/349 297/365/257 223/366/260
f 422/363/349 336/272/264 234/274/258 297/365/257
f 331/358/344 257/269/261 336/272/264 422/363/349
f 274/367/351 374/368/352 423/369/353 394/370/354
f 394/370/354 423/369/353 356/371/355 275/372/356
f 423/369/353 352/373/357 262/374/358 356/371/355
f 374/368/352 263/375/359 352/373/357 423/369/353
f 275/372/356 356/371/355 424/376/360 393/377/361
f 393/377/361 424/376/360 357/378/362 276/379/363
f 424/376/360 351/380/364 265/381/365 357/378/362
f 356/371/355 262/374/358 351/380/364 424/376/360
f 276/379/363 357/378/362 425/382/366 392/383/367
f 392/383/367 425/382/366 358/384/368 277/385/369
f 425/382/366 354/386/370 261/387/371 358/384/368
f 357/378/362 265/381/365 354/386/370 425/382/366
f 278/388/372 378/389/373 426/390/374 391/391/375
f 391/391/375 426/390/374 374/368/352 274/367/351
f 426/390/374 350/392/376 263/375/359 374/368/352
f 378/389/373 260/393/377 350/392/376 426/390/374
f 279/394/378 379/395/379 427/396/380 390/397/381
f 390/397/381 427/396/380 378/389/373 278/388/372
f 427/396/380 353/398/382 260/393/377 378/389/373
f 379/395/379 264/399/383 353/398/382 427/396/380
f 280/400/384 380/401/385 428/402/386 389/403/387
f 389/403/387 428/402/386 379/395/379 279/394/378
f 428/402/386 349/404/388 264/399/383 379/395/379
f 380/401/385 259/405/389 349/404/388 428/402/386
f 283/406/390 388/407/391 429/408/392 383/409/393
f 383/409/393 429/408/392 364/410/394 271/411/395
f 429/408/392 381/412/396 267/413/397 364/410/394
f 388/407/391 281/414/398 381/412/396 429/408/392
f 284/415/399 387/416/400 430/417/401 384/418/402
f 384/418/402 430/417/401 367/419/403 273/420/404
f 430/417/401 382/421/405 268/422/406 367/419/403
f 387/416/400 282/423/407 382/421/405 430/417/401
f 280/400/384 386/424/408 431/425/409 380/401/385
f 380/401/385 431/425/409 369/426/410 259/405/389
f 431/425/409 383/409/393 271/411/395 369/426/410
f 386/424/408 283/406/390 383/409/393 431/425/409
f 277/385/369 385/427/411 432/428/412 377/429/413
f 377/429/413 432/428/412 372/430/414 226/244/236
f 432/428/412 384/418/402 273/420/404 372/430/414
f 385/427/411 284/415/399 384/418/402 432/428/412
f 261/387/371 366/431/415 433/432/416 358/384/368
f 358/384/368 433/432/416 385/427/411 277/385/369
f 433/432/416 373/433/417 284/415/399 385/427/411
f 366/431/415 272/434/418 373/433/417 433/432/416
f 222/316/302 363/435/419 434/436/420 361/437/421
f 361/437/421 434/436/420 386/424/408 280/400/384
f 434/436/420 370/438/422 283/406/390 386/424/408
f 363/435/419 270/439/423 370/438/422 434/436/420
f 272/434/418 371/440/424 435/441/425 373/433/417
f 373/433/417 435/441/425 387/416/400 284/415/399
f 435/441/425 365/442/426 282/423/407 387/416/400
f 371/440/424 269/443/427 365/442/426 435/441/425
f 270/439/423 368/444/428 436/445/429 370/438/422
f 370/438/422 436/445/429 388/407/391 283/406/390
f 436/445/429 362/446/430 281/414/398 388/407/391
f 368/444/428 266/447/431 362/446/430 436/445/429
f 222/316/302 361/437/421 437/448/432 285/317/303
f 285/317/303 437/448/432 360/449/433 233/296/287
f 437/448/432 389/403/387 279/394/378 360/449/433
f 361/437/421 280/400/384 389/403/387 437/448/432
f 233/296/287 360/449/433 438/450/434 296/297/288
f 296/297/288 438/450/434 359/451/435 224/245/237
f 438/450/434 390/397/381 278/388/372 359/451/435
f 360/449/433 279/394/378 390/397/381 438/450/434
f 224/245/237 359/451/435 439/452/436 287/246/238
f 287/246/238 439/452/436 355/453/437 230/253/245
f 439/452/436 391/391/375 274/367/351 355/453/437
f 359/451/435 278/388/372 391/391/375 439/452/436
f 235/238/230 376/454/438 440/455/439 298/239/231
f 298/239/231 440/455/439 377/429/413 226/244/236
f 440/455/439 392/383/367 277/385/369 377/429/413
f 376/454/438 276/379/363 392/383/367 440/455/439
f 228/230/222 375/456/440 441/457/441 289/231/223
f 289/231/223 441/457/441 376/454/438 235/238/230
f 441/457/441 393/377/361 276/379/363 376/454/438
f 375/456/440 275/372/356 393/377/361 441/457/441
f 230/253/245 355/453/437 442/458/442 291/302/293
f 291/302/293 442/458/442 375/456/440 228/230/222
f 442/458/442 394/370/354 275/372/356 375/456/440
f 355/453/437 274/367/351 394/370/354 442/458/442
f 11/31/31 71/39/39 292/267/259 232/261/253
f 71/39/39 2/38/38 223/268/260 292/267/259
f 6/33/33 73/32/32 294/260/252 227/262/254
f 73/32/32 11/31/31 232/261/253 294/260/252
f 91/104/98 27/54/53 248/283/274 312/333/319
f 28/105/99 91/104/98 312/333/319 249/335/321
f 94/110/104 28/105/99 249/335/321 315/339/325
f 26/13/13 94/110/104 315/339/325 247/243/235
f 109/129/123 19/131/125 240/360/346 330/356/342
f 17/126/120 109/129/123 330/356/342 238/355/341
f 112/133/127 18/91/85 239/321/307 333/361/347
f 19/131/125 112/133/127 333/361/347 240/360/346
f 114/134/128 17/126/120 238/355/341 335/364/350
f 2/136/38 114/134/128 335/364/350 223/366/260
f 116/88/82 1/87/81 222/316/302 337/319/305
f 18/91/85 116/88/82 337/319/305 239/321/307
f 126/14/14 26/13/13 247/243/235 347/242/234
f 5/15/15 126/14/14 347/242/234 226/244/236
f 127/53/52 6/33/33 227/262/254 348/282/273
f 27/54/53 127/53/52 348/282/273 248/283/274
f 128/175/167 43/170/162 264/399/383 349/404/388
f 38/176/168 128/175/167 349/404/388 259/405/389
f 129/163/155 42/146/138 263/375/359 350/392/376
f 39/164/156 129/163/155 350/392/376 260/393/377
f 130/152/144 44/151/143 265/381/365 351/380/364
f 41/144/136 130/152/144 351/380/364 262/374/358
f 131/145/137 41/144/136 262/374/358 352/373/357
f 42/146/138 131/145/137 352/373/357 263/375/359
f 132/169/161 39/164/156 260/393/377 353/398/382
f 43/170/162 132/169/161 353/398/382 264/399/383
f 133/158/150 40/157/149 261/387/371 354/386/370
f 44/151/143 133/158/150 354/386/370 265/381/365
f 141/217/209 60/185/177 281/414/398 362/446/430
f 45/218/210 141/217/209 362/446/430 266/447/431
f 142/208/200 49/210/202 270/439/423 363/435/419
f 1/87/81 142/208/200 363/435/419 222/316/302
f 143/182/174 50/181/173 271/411/395 364/410/394
f 46/183/175 143/182/174 364/410/394 267/413/397
f 144/213/205 61/194/186 282/423/407 365/442/426
f 48/214/206 144/213/205 365/442/426 269/443/427
f 145/203/195 51/205/197 272/434/418 366/431/415
f 40/157/149 145/203/195 366/431/415 261/387/371
f 146/191/183 52/190/182 273/420/404 367/419/403
f 47/192/184 146/191/183 367/419/403 268/422/406
f 147/216/208 45/218/210 266/447/431 368/444/428
f 49/210/202 147/216/208 368/444/428 270/439/423
f 148/197/189 38/176/168 259/405/389 369/426/410
f 50/181/173 148/197/189 369/426/410 271/411/395
f 150/212/204 48/214/206 269/443/427 371/440/424
f 51/205/197 150/212/204 371/440/424 272/434/418
f 151/201/193 5/15/15 226/244/236 372/430/414
f 52/190/182 151/201/193 372/430/414 273/420/404
f 160/184/176 46/183/175 267/413/397 381/412/396
f 60/185/177 160/184/176 381/412/396 281/414/398
f 161/193/185 47/192/184 268/422/406 382/421/405
f 61/194/186 161/193/185 382/421/405 282/423/407
o Button01_Cube.013
v 0.162375 1.644514 1.393878
v 0.207843 1.860781 1.328165
v 0.157002 1.618956 1.306047
v 0.202470 1.835223 1.240333
v 0.388001 1.597079 1.393878
v 0.433469 1.813346 1.328165
v 0.382628 1.571521 1.306047
v 0.428095 1.787788 1.240333
v 0.262848 1.562099 1.303016
v 0.320777 1.837640 1.219292
v 0.269694 1.594662 1.414920
v 0.327623 1.870203 1.331196
v 0.154926 1.762651 1.373058
v 0.148080 1.730088 1.261154
v 0.435545 1.669652 1.261154
v 0.442391 1.702215 1.373058
v 0.301743 1.747105 1.423481
v 0.288728 1.685197 1.210731
vt 0.500000 0.000000
vt 0.625000 0.000000
vt 0.625000 0.250000
vt 0.500000 0.250000
vt 0.500000 0.375000
vt 0.625000 0.375000
vt 0.625000 0.500000
vt 0.500000 0.500000
vt 0.625000 0.750000
vt 0.500000 0.750000
vt 0.500000 0.875000
vt 0.625000 0.875000
vt 0.625000 1.000000
vt 0.500000 1.000000
vt 0.250000 0.500000
vt 0.375000 0.500000
vt 0.375000 0.750000
vt 0.250000 0.750000
vt 0.750000 0.500000
vt 0.875000 0.500000
vt 0.875000 0.750000
vt 0.750000 0.750000
vt 0.125000 0.500000
vt 0.125000 0.750000
vt 0.375000 0.250000
vt 0.375000 0.375000
vt 0.375000 0.875000
vt 0.375000 1.000000
vt 0.375000 0.000000
vn -0.7632 0.3294 0.5559
vn -0.4618 0.8457 0.2676
vn -0.5164 0.5861 -0.6244
vn -0.8313 0.0059 -0.5559
vn -0.0586 -0.2789 -0.9585
vn 0.1267 0.6024 -0.7881
vn 0.7086 0.3285 -0.6244
vn 0.7632 -0.3294 -0.5559
vn 0.7632 0.5881 0.2676
vn 0.8313 -0.0059 0.5559
vn 0.0586 0.2789 0.9585
vn 0.1947 0.9259 0.3237
vn -0.1947 -0.9259 -0.3237
vn 0.4618 -0.8457 -0.2676
vn 0.5164 -0.5861 0.6244
vn -0.1267 -0.6024 0.7881
vn -0.7632 -0.5881 -0.2676
vn -0.7086 -0.3285 0.6244
usemtl None
s 1
f 455/459/443 444/460/444 446/461/445 456/462/446
f 460/463/447 452/464/448 450/465/449 457/466/450
f 457/466/450 450/465/449 448/467/451 458/468/452
f 459/469/453 454/470/454 444/471/444 455/472/443
f 451/473/455 449/474/456 447/475/457 453/476/458
f 452/477/448 446/478/445 444/479/444 454/480/454
f 450/465/449 452/477/448 454/480/454 448/467/451
f 445/481/459 451/473/455 453/476/458 443/482/460
f 458/468/452 448/467/451 454/470/454 459/469/453
f 456/462/446 446/461/445 452/464/448 460/463/447
f 445/483/459 456/462/446 460/463/447 451/484/455
f 447/475/457 458/468/452 459/469/453 453/485/458
f 453/485/458 459/469/453 455/472/443 443/486/460
f 449/474/456 457/466/450 458/468/452 447/475/457
f 451/484/455 460/463/447 457/466/450 449/474/456
f 443/487/460 455/459/443 456/462/446 445/483/459
o Button02_Cube.014
v 0.085261 1.259588 1.518037
v 0.122082 1.474473 1.453210
v 0.080910 1.234194 1.431390
v 0.117730 1.449078 1.366562
v 0.309444 1.221175 1.518037
v 0.346265 1.436059 1.453210
v 0.305093 1.195780 1.431390
v 0.341913 1.410664 1.366562
v 0.187359 1.182059 1.428400
v 0.234271 1.455839 1.345804
v 0.192903 1.214414 1.538795
v 0.239815 1.488194 1.456200
v 0.073546 1.375775 1.497497
v 0.068002 1.343420 1.387102
v 0.353629 1.294478 1.387102
v 0.359173 1.326833 1.497497
v 0.218857 1.365883 1.547241
v 0.208317 1.304370 1.337358
vt 0.500000 0.000000
vt 0.625000 0.000000
vt 0.625000 0.250000
vt 0.500000 0.250000
vt 0.500000 0.375000
vt 0.625000 0.375000
vt 0.625000 0.500000
vt 0.500000 0.500000
vt 0.625000 0.750000
vt 0.500000 0.750000
vt 0.500000 0.875000
vt 0.625000 0.875000
vt 0.625000 1.000000
vt 0.500000 1.000000
vt 0.250000 0.500000
vt 0.375000 0.500000
vt 0.375000 0.750000
vt 0.250000 0.750000
vt 0.750000 0.500000
vt 0.875000 0.500000
vt 0.875000 0.750000
vt 0.750000 0.750000
vt 0.125000 0.500000
vt 0.125000 0.750000
vt 0.375000 0.250000
vt 0.375000 0.375000
vt 0.375000 0.875000
vt 0.375000 1.000000
vt 0.375000 0.000000
vn -0.7751 0.3005 0.5559
vn -0.4932 0.8277 0.2676
vn -0.5380 0.5663 -0.6244
vn -0.8309 -0.0253 -0.5559
vn -0.0481 -0.2809 -0.9585
vn 0.1040 0.6068 -0.7881
vn 0.6958 0.3549 -0.6244
vn 0.7751 -0.3005 -0.5559
vn 0.7406 0.6163 0.2676
vn 0.8309 0.0253 0.5559
vn 0.0481 0.2809 0.9585
vn 0.1598 0.9326 0.3237
vn -0.1598 -0.9326 -0.3237
vn 0.4932 -0.8277 -0.2676
vn 0.5380 -0.5663 0.6244
vn -0.1040 -0.6068 0.7881
vn -0.7406 -0.6163 -0.2676
vn -0.6958 -0.3549 0.6244
usemtl None
s 1
f 473/488/461 462/489/462 464/490/463 474/491/464
f 478/492/465 470/493/466 468/494/467 475/495/468
f 475/495/468 468/494/467 466/496/469 476/497/470
f 477/498/471 472/499/472 462/500/462 473/501/461
f 469/502/473 467/503/474 465/504/475 471/505/476
f 470/506/466 464/507/463 462/508/462 472/509/472
f 468/494/467 470/506/466 472/509/472 466/496/469
f 463/510/477 469/502/473 471/505/476 461/511/478
f 476/497/470 466/496/469 472/499/472 477/498/471
f 474/491/464 464/490/463 470/493/466 478/492/465
f 463/512/477 474/491/464 478/492/465 469/513/473
f 465/504/475 476/497/470 477/498/471 471/514/476
f 471/514/476 477/498/471 473/501/461 461/515/478
f 467/503/474 475/495/468 476/497/470 465/504/475
f 469/513/473 478/492/465 475/495/468 467/503/474
f 461/516/478 473/488/461 474/491/464 463/512/477
o Button03_Cube.015
v -0.004837 0.900970 1.620534
v 0.037700 1.103178 1.552844
v -0.009955 0.874556 1.538412
v 0.032582 1.076764 1.470722
v 0.208011 0.856539 1.621560
v 0.250548 1.058747 1.553870
v 0.202893 0.830124 1.539438
v 0.245430 1.032332 1.471748
v 0.089939 0.821010 1.536947
v 0.144134 1.078639 1.450704
v 0.096459 0.854664 1.641577
v 0.150654 1.112293 1.555335
v -0.012036 1.011782 1.597803
v -0.018556 0.978129 1.493172
v 0.252629 0.921520 1.494479
v 0.259149 0.955174 1.599110
v 0.126495 0.998642 1.645602
v 0.114098 0.934660 1.446680
vt 0.500000 0.000000
vt 0.625000 0.000000
vt 0.625000 0.250000
vt 0.500000 0.250000
vt 0.500000 0.375000
vt 0.625000 0.375000
vt 0.625000 0.500000
vt 0.500000 0.500000
vt 0.625000 0.750000
vt 0.500000 0.750000
vt 0.500000 0.875000
vt 0.625000 0.875000
vt 0.625000 1.000000
vt 0.500000 1.000000
vt 0.250000 0.500000
vt 0.375000 0.500000
vt 0.375000 0.750000
vt 0.250000 0.750000
vt 0.750000 0.500000
vt 0.875000 0.500000
vt 0.875000 0.750000
vt 0.750000 0.750000
vt 0.125000 0.500000
vt 0.125000 0.750000
vt 0.375000 0.250000
vt 0.375000 0.375000
vt 0.375000 0.875000
vt 0.375000 1.000000
vt 0.375000 0.000000
vn -0.7631 0.3437 0.5472
vn -0.4627 0.8522 0.2444
vn -0.5178 0.5677 -0.6400
vn -0.8318 -0.0108 -0.5549
vn -0.0592 -0.3057 -0.9503
vn 0.1250 0.5804 -0.8047
vn 0.7076 0.3119 -0.6341
vn 0.7631 -0.3437 -0.5472
vn 0.7627 0.5964 0.2503
vn 0.8318 0.0108 0.5549
vn 0.0592 0.3057 0.9503
vn 0.1937 0.9349 0.2975
vn -0.1937 -0.9349 -0.2975
vn 0.4627 -0.8522 -0.2444
vn 0.5178 -0.5677 0.6400
vn -0.1250 -0.5804 0.8047
vn -0.7627 -0.5964 -0.2503
vn -0.7076 -0.3119 0.6341
usemtl None
s 1
f 491/517/479 480/518/480 482/519/481 492/520/482
f 496/521/483 488/522/484 486/523/485 493/524/486
f 493/524/486 486/523/485 484/525/487 494/526/488
f 495/527/489 490/528/490 480/529/480 491/530/479
f 487/531/491 485/532/492 483/533/493 489/534/494
f 488/535/484 482/536/481 480/537/480 490/538/490
f 486/523/485 488/535/484 490/538/490 484/525/487
f 481/539/495 487/531/491 489/534/494 479/540/496
f 494/526/488 484/525/487 490/528/490 495/527/489
f 492/520/482 482/519/481 488/522/484 496/521/483
f 481/541/495 492/520/482 496/521/483 487/542/491
f 483/533/493 494/526/488 495/527/489 489/543/494
f 489/543/494 495/527/489 491/530/479 479/544/496
f 485/532/492 493/524/486 494/526/488 483/533/493
f 487/542/491 496/521/483 493/524/486 485/532/492
f 479/545/496 491/517/479 492/520/482 481/541/495
o Button04_Cube.016
v -0.115686 0.545333 1.756614
v -0.070738 0.747019 1.688925
v -0.121119 0.518982 1.674492
v -0.076171 0.720668 1.606802
v 0.096617 0.498364 1.757641
v 0.141564 0.700050 1.689951
v 0.091184 0.472013 1.675518
v 0.136131 0.673699 1.607828
v -0.021872 0.464248 1.673027
v 0.035395 0.721211 1.586785
v -0.014950 0.497821 1.777658
v 0.042317 0.754785 1.691416
v -0.121561 0.656224 1.733883
v -0.128483 0.622650 1.629252
v 0.142007 0.562808 1.630560
v 0.148929 0.596382 1.735190
v 0.016803 0.641431 1.781682
v 0.003643 0.577601 1.582760
vt 0.500000 0.000000
vt 0.625000 0.000000
vt 0.625000 0.250000
vt 0.500000 0.250000
vt 0.500000 0.375000
vt 0.625000 0.375000
vt 0.625000 0.500000
vt 0.500000 0.500000
vt 0.625000 0.750000
vt 0.500000 0.750000
vt 0.500000 0.875000
vt 0.625000 0.875000
vt 0.625000 1.000000
vt 0.500000 1.000000
vt 0.250000 0.500000
vt 0.375000 0.500000
vt 0.375000 0.750000
vt 0.250000 0.750000
vt 0.750000 0.500000
vt 0.875000 0.500000
vt 0.875000 0.750000
vt 0.750000 0.750000
vt 0.125000 0.500000
vt 0.125000 0.750000
vt 0.375000 0.250000
vt 0.375000 0.375000
vt 0.375000 0.875000
vt 0.375000 1.000000
vt 0.375000 0.000000
vn -0.7590 0.3528 0.5472
vn -0.4525 0.8576 0.2444
vn -0.5110 0.5739 -0.6400
vn -0.8319 -0.0009 -0.5549
vn -0.0629 -0.3049 -0.9503
vn 0.1319 0.5788 -0.8047
vn 0.7112 0.3035 -0.6341
vn 0.7590 -0.3528 -0.5472
vn 0.7697 0.5872 0.2503
vn 0.8319 0.0009 0.5549
vn 0.0629 0.3049 0.9503
vn 0.2049 0.9325 0.2975
vn -0.2049 -0.9325 -0.2975
vn 0.4525 -0.8576 -0.2444
vn 0.5110 -0.5739 0.6400
vn -0.1319 -0.5788 0.8047
vn -0.7697 -0.5872 -0.2503
vn -0.7112 -0.3035 0.6341
usemtl None
s 1
f 509/546/497 498/547/498 500/548/499 510/549/500
f 514/550/501 506/551/502 504/552/503 511/553/504
f 511/553/504 504/552/503 502/554/505 512/555/506
f 513/556/507 508/557/508 498/558/498 509/559/497
f 505/560/509 503/561/510 501/562/511 507/563/512
f 506/564/502 500/565/499 498/566/498 508/567/508
f 504/552/503 506/564/502 508/567/508 502/554/505
f 499/568/513 505/560/509 507/563/512 497/569/514
f 512/555/506 502/554/505 508/557/508 513/556/507
f 510/549/500 500/548/499 506/551/502 514/550/501
f 499/570/513 510/549/500 514/550/501 505/571/509
f 501/562/511 512/555/506 513/556/507 507/572/512
f 507/572/512 513/556/507 509/559/497 497/573/514
f 503/561/510 511/553/504 512/555/506 501/562/511
f 505/571/509 514/550/501 511/553/504 503/561/510
f 497/574/514 509/546/497 510/549/500 499/570/513
